 0
SECTION
 2
ENTITIES
  0
LINE
 8
GROUP0
10
461.564061890423
20
1864.54200605277
30
0.000189085674522005
11
458.965985679075
21
1866.04200605276
31
0.000184040205290614
  0
LINE
 8
GROUP0
10
464.162138101773
20
1866.04200605277
30
0.000192873817795913
11
461.564061890423
21
1864.54200605277
31
0.000189085674522005
  0
LINE
 8
GROUP0
10
464.162138101776
20
1869.04200605277
30
0.000191616493192015
11
464.162138101773
21
1866.04200605277
31
0.000192873817795913
  0
LINE
 8
GROUP0
10
458.965985679075
20
1866.04200605276
30
0.000184040205290614
11
458.965985679077
21
1869.04200605276
31
0.000182782881137911
  0
LINE
 8
GROUP0
10
439.5736961629
20
1866.04200605279
30
0.000171103885183044
11
436.97561995155
21
1864.54200605279
31
0.000167315740916507
  0
LINE
 8
GROUP0
10
436.97561995155
20
1864.54200605279
30
0.000167315740916507
11
434.377543740201
21
1866.04200605279
31
0.000162270272948462
  0
LINE
 8
GROUP0
10
434.377543740201
20
1866.04200605279
30
0.000162270272948462
11
434.377543740204
21
1869.04200605279
31
0.000161012948164085
  0
LINE
 8
GROUP0
10
434.377543740204
20
1869.04200605279
30
0.000161012948164085
11
436.975619951554
21
1870.54200605279
31
0.000164801091889188
  0
LINE
 8
GROUP0
10
436.975619951554
20
1870.54200605279
30
0.000164801091889188
11
439.573696162902
21
1869.04200605279
31
0.000169846560398668
  0
LINE
 8
GROUP0
10
439.573696162902
20
1869.04200605279
30
0.000169846560398668
11
439.5736961629
21
1866.04200605279
31
0.000171103885183044
  0
LINE
 8
GROUP0
10
442.573694085323
20
1880.23815847546
30
0.000162270272587506
11
442.573694085325
21
1883.23815847546
31
0.000161012947712891
  0
LINE
 8
GROUP0
10
442.573694085325
20
1883.23815847546
30
0.000161012947712891
11
445.171770296676
21
1884.73815847546
31
0.000164801092069666
  0
LINE
 8
GROUP0
10
445.171770296676
20
1884.73815847546
30
0.000164801092069666
11
447.769846508024
21
1883.23815847546
31
0.000169846560579145
  0
LINE
 8
GROUP0
10
447.769846508024
20
1883.23815847546
30
0.000169846560579145
11
447.769846508021
21
1880.23815847546
31
0.000171103885183044
  0
LINE
 8
GROUP0
10
447.769846508021
20
1880.23815847546
30
0.000171103885183044
11
445.171770296672
21
1878.73815847546
31
0.000167315740284835
  0
LINE
 8
GROUP0
10
445.171770296672
20
1878.73815847546
30
0.000167315740284835
11
442.573694085323
21
1880.23815847546
31
0.000162270272587506
  0
LINE
 8
GROUP0
10
382.200652843551
20
1854.84583597487
30
0.000108171005057756
11
382.200652843548
21
1851.84583597486
31
0.000109428329751893
  0
LINE
 8
GROUP0
10
382.200652843548
20
1851.84583597486
30
0.000109428329751893
11
379.602576632199
21
1850.34583597487
31
0.0001056401851244
  0
LINE
 8
GROUP0
10
379.602576632199
20
1850.34583597487
30
0.0001056401851244
11
377.00450042085
21
1851.84583597487
31
0.000100594716524682
  0
LINE
 8
GROUP0
10
377.00450042085
20
1851.84583597487
30
0.000100594716524682
11
377.004500420852
21
1854.84583597487
31
9.9337392011023e-005
  0
LINE
 8
GROUP0
10
377.004500420852
20
1854.84583597487
30
9.9337392011023e-005
11
379.602576632202
21
1856.34583597486
31
0.000103125536728754
  0
LINE
 8
GROUP0
10
379.602576632202
20
1856.34583597486
30
0.000103125536728754
11
382.200652843551
21
1854.84583597487
31
0.000108171005057756
  0
LINE
 8
GROUP0
10
471.260228603592
20
1876.14008166435
30
0.000159339320977381
11
473.858304814942
21
1877.64008166435
31
0.000163127465243917
  0
LINE
 8
GROUP0
10
473.858304814942
20
1877.64008166435
30
0.000163127465243917
11
476.45638102629
21
1876.14008166435
31
0.000168172934114352
  0
LINE
 8
GROUP0
10
476.45638102629
20
1876.14008166435
30
0.000168172934114352
11
476.456381026288
21
1873.14008166435
31
0.000169430258267056
  0
LINE
 8
GROUP0
10
476.456381026288
20
1873.14008166435
30
0.000169430258267056
11
473.858304814938
21
1871.64008166435
31
0.000165642114541953
  0
LINE
 8
GROUP0
10
473.858304814938
20
1871.64008166435
30
0.000165642114541953
11
471.26022860359
21
1873.14008166435
31
0.000160596645942235
  0
LINE
 8
GROUP0
10
471.26022860359
20
1873.14008166435
30
0.000160596645942235
11
471.260228603592
21
1876.14008166435
31
0.000159339320977381
  0
LINE
 8
GROUP0
10
442.573694085323
20
1866.04200605279
30
0.000162270272948462
11
442.573694085326
21
1869.04200605279
31
0.000161012948164085
  0
LINE
 8
GROUP0
10
442.573694085326
20
1869.04200605279
30
0.000161012948164085
11
445.171770296676
21
1870.54200605279
31
0.000164801091889188
  0
LINE
 8
GROUP0
10
445.171770296676
20
1870.54200605279
30
0.000164801091889188
11
447.769846508023
21
1869.04200605279
31
0.000169846560308429
  0
LINE
 8
GROUP0
10
447.769846508023
20
1869.04200605279
30
0.000169846560308429
11
447.769846508021
21
1866.04200605279
31
0.000171103885183044
  0
LINE
 8
GROUP0
10
447.769846508021
20
1866.04200605279
30
0.000171103885183044
11
445.171770296672
21
1864.54200605279
31
0.000167315740826268
  0
LINE
 8
GROUP0
10
445.171770296672
20
1864.54200605279
30
0.000167315740826268
11
442.573694085323
21
1866.04200605279
31
0.000162270272948462
  0
LINE
 8
GROUP0
10
414.985245127534
20
1851.84584480248
30
0.000149570183192793
11
412.387168916185
21
1850.34584480248
31
0.000145782038565301
  0
LINE
 8
GROUP0
10
412.387168916185
20
1850.34584480248
30
0.000145782038565301
11
409.789092704836
21
1851.84584480248
31
0.000140736570416777
  0
LINE
 8
GROUP0
10
409.789092704836
20
1851.84584480248
30
0.000140736570416777
11
409.789092704838
21
1854.84584480248
31
0.000139479245542162
  0
LINE
 8
GROUP0
10
409.789092704838
20
1854.84584480248
30
0.000139479245542162
11
412.387168916189
21
1856.34584480248
31
0.000143267390259894
  0
LINE
 8
GROUP0
10
412.387168916189
20
1856.34584480248
30
0.000143267390259894
11
414.985245127536
21
1854.84584480248
31
0.000148312858679134
  0
LINE
 8
GROUP0
10
414.985245127536
20
1854.84584480248
30
0.000148312858679134
11
414.985245127534
21
1851.84584480248
31
0.000149570183192793
  0
LINE
 8
GROUP0
10
496.94673038576
20
1880.23816730305
30
0.000233015670966097
11
494.34865417441
21
1878.73816730305
31
0.000229227527872666
  0
LINE
 8
GROUP0
10
494.34865417441
20
1878.73816730305
30
0.000229227527872666
11
491.750577963061
21
1880.23816730305
31
0.000224182058551037
  0
LINE
 8
GROUP0
10
491.750577963061
20
1880.23816730305
30
0.000224182058551037
11
491.750577963062
21
1883.23816730305
31
0.000222924734127616
  0
LINE
 8
GROUP0
10
491.750577963062
20
1883.23816730305
30
0.000222924734127616
11
494.348654174413
21
1884.73816730305
31
0.000226712878935587
  0
LINE
 8
GROUP0
10
494.348654174413
20
1884.73816730305
30
0.000226712878935587
11
496.946730385762
21
1883.23816730305
31
0.00023175834708411
  0
LINE
 8
GROUP0
10
496.946730385762
20
1883.23816730305
30
0.00023175834708411
11
496.94673038576
21
1880.23816730305
31
0.000233015670966097
  0
LINE
 8
GROUP0
10
508.142878653301
20
1880.23817171687
30
0.000233368018243141
11
508.142878653303
21
1883.23817171687
31
0.000232110694090437
  0
LINE
 8
GROUP0
10
508.142878653303
20
1883.23817171687
30
0.000232110694090437
11
510.740954864653
21
1884.73817171687
31
0.000235898838808168
  0
LINE
 8
GROUP0
10
510.740954864653
20
1884.73817171687
30
0.000235898838808168
11
513.339031076002
21
1883.23817171687
31
0.000240944307046931
  0
LINE
 8
GROUP0
10
513.339031076002
20
1883.23817171687
30
0.000240944307046931
11
513.339031076
21
1880.23817171687
31
0.000242201631831307
  0
LINE
 8
GROUP0
10
513.339031076
20
1880.23817171687
30
0.000242201631831307
11
510.740954864649
21
1878.73817171687
31
0.000238413486933098
  0
LINE
 8
GROUP0
10
510.740954864649
20
1878.73817171687
30
0.000238413486933098
11
508.142878653301
21
1880.23817171687
31
0.000233368018243141
  0
LINE
 8
GROUP0
10
414.985245127543
20
1880.23814964783
30
0.000152731964084296
11
412.387168916193
21
1878.73814964783
31
0.000148943820990866
  0
LINE
 8
GROUP0
10
412.387168916193
20
1878.73814964783
30
0.000148943820990866
11
409.789092704844
21
1880.23814964783
31
0.000143898351669236
  0
LINE
 8
GROUP0
10
409.789092704844
20
1880.23814964783
30
0.000143898351669236
11
409.789092704845
21
1883.23814964783
31
0.000142641027200696
  0
LINE
 8
GROUP0
10
409.789092704845
20
1883.23814964783
30
0.000142641027200696
11
412.387168916197
21
1884.73814964783
31
0.000146429172008666
  0
LINE
 8
GROUP0
10
412.387168916197
20
1884.73814964783
30
0.000146429172008666
11
414.985245127545
21
1883.23814964783
31
0.00015147464015719
  0
LINE
 8
GROUP0
10
414.985245127545
20
1883.23814964783
30
0.00015147464015719
11
414.985245127543
21
1880.23814964783
31
0.000152731964084296
  0
LINE
 8
GROUP0
10
417.985243049958
20
1851.84584480248
30
0.000140736569965583
11
417.985243049961
21
1854.84584480248
31
0.000139479245451923
  0
LINE
 8
GROUP0
10
417.985243049961
20
1854.84584480248
30
0.000139479245451923
11
420.583319261311
21
1856.34584480248
31
0.000143267390169655
  0
LINE
 8
GROUP0
10
420.583319261311
20
1856.34584480248
30
0.000143267390169655
11
423.181395472659
21
1854.84584480248
31
0.000148312858498656
  0
LINE
 8
GROUP0
10
423.181395472659
20
1854.84584480248
30
0.000148312858498656
11
423.181395472656
21
1851.84584480248
31
0.000149570183192793
  0
LINE
 8
GROUP0
10
423.181395472656
20
1851.84584480248
30
0.000149570183192793
11
420.583319261307
21
1850.34584480248
31
0.000145782038565301
  0
LINE
 8
GROUP0
10
420.583319261307
20
1850.34584480248
30
0.000145782038565301
11
417.985243049958
21
1851.84584480248
31
0.000140736569965583
  0
LINE
 8
GROUP0
10
487.652513964604
20
1876.14009049196
30
0.000199481174418281
11
490.250590175954
21
1877.64009049196
31
0.000203269318414101
  0
LINE
 8
GROUP0
10
490.250590175954
20
1877.64009049196
30
0.000203269318414101
11
492.848666387303
21
1876.14009049196
31
0.000208314787555253
  0
LINE
 8
GROUP0
10
492.848666387303
20
1876.14009049196
30
0.000208314787555253
11
492.848666387301
21
1873.14009049197
31
0.000209572111707956
  0
LINE
 8
GROUP0
10
492.848666387301
20
1873.14009049197
30
0.000209572111707956
11
490.25059017595
21
1871.64009049197
31
0.000205783967982853
  0
LINE
 8
GROUP0
10
490.25059017595
20
1871.64009049197
30
0.000205783967982853
11
487.652513964602
21
1873.14009049196
31
0.000200738499383135
  0
LINE
 8
GROUP0
10
487.652513964602
20
1873.14009049196
30
0.000200738499383135
11
487.652513964604
21
1876.14009049196
31
0.000199481174418281
  0
LINE
 8
GROUP0
10
479.456361541905
20
1876.14009049196
30
0.000199481174418281
11
482.054437753255
21
1877.64009049196
31
0.000203269318684818
  0
LINE
 8
GROUP0
10
482.054437753255
20
1877.64009049196
30
0.000203269318684818
11
484.652513964604
21
1876.14009049196
31
0.000208314787555253
  0
LINE
 8
GROUP0
10
484.652513964604
20
1876.14009049196
30
0.000208314787555253
11
484.652513964601
21
1873.14009049197
31
0.000209572111707956
  0
LINE
 8
GROUP0
10
484.652513964601
20
1873.14009049197
30
0.000209572111707956
11
482.054437753252
21
1871.64009049197
31
0.000205783967982853
  0
LINE
 8
GROUP0
10
482.054437753252
20
1871.64009049197
30
0.000205783967982853
11
479.456361541903
21
1873.14009049196
31
0.000200738499383135
  0
LINE
 8
GROUP0
10
479.456361541903
20
1873.14009049196
30
0.000200738499383135
11
479.456361541905
21
1876.14009049196
31
0.000199481174418281
  0
LINE
 8
GROUP0
10
406.789103878913
20
1880.23814964785
30
0.000130962031742143
11
404.191027667563
21
1878.73814964785
31
0.000127173886843934
  0
LINE
 8
GROUP0
10
404.191027667563
20
1878.73814964785
30
0.000127173886843934
11
401.592951456215
21
1880.23814964785
31
0.000122128419146605
  0
LINE
 8
GROUP0
10
401.592951456215
20
1880.23814964785
30
0.000122128419146605
11
401.592951456217
21
1883.23814964785
31
0.000120871094226871
  0
LINE
 8
GROUP0
10
401.592951456217
20
1883.23814964785
30
0.000120871094226871
11
404.191027667567
21
1884.73814964785
31
0.000124659238583646
  0
LINE
 8
GROUP0
10
404.191027667567
20
1884.73814964785
30
0.000124659238583646
11
406.789103878916
21
1883.23814964785
31
0.000129704707093126
  0
LINE
 8
GROUP0
10
406.789103878916
20
1883.23814964785
30
0.000129704707093126
11
406.789103878913
21
1880.23814964785
31
0.000130962031742143
  0
LINE
 8
GROUP0
10
424.681409763131
20
1871.64007283674
30
0.000125500261101053
11
422.083333551783
21
1873.14007283674
31
0.000120454792501334
  0
LINE
 8
GROUP0
10
422.083333551783
20
1873.14007283674
30
0.000120454792501334
11
422.083333551785
21
1876.14007283674
31
0.00011919746753648
  0
LINE
 8
GROUP0
10
422.083333551785
20
1876.14007283674
30
0.00011919746753648
11
424.681409763135
21
1877.64007283674
31
0.000122985611803017
  0
LINE
 8
GROUP0
10
424.681409763135
20
1877.64007283674
30
0.000122985611803017
11
427.279485974483
21
1876.14007283674
31
0.000128031080673452
  0
LINE
 8
GROUP0
10
427.279485974483
20
1876.14007283674
30
0.000128031080673452
11
427.279485974481
21
1873.14007283674
31
0.000129288404826156
  0
LINE
 8
GROUP0
10
427.279485974481
20
1873.14007283674
30
0.000129288404826156
11
424.681409763131
21
1871.64007283674
31
0.000125500261101053
  0
LINE
 8
GROUP0
10
420.583319261318
20
1870.54199722515
30
0.000146429171783069
11
423.181395472667
21
1869.04199722515
31
0.000151474639751115
  0
LINE
 8
GROUP0
10
423.181395472667
20
1869.04199722515
30
0.000151474639751115
11
423.181395472665
21
1866.04199722515
31
0.000152731964355013
  0
LINE
 8
GROUP0
10
423.181395472665
20
1866.04199722515
30
0.000152731964355013
11
420.583319261315
21
1864.54199722515
31
0.000148943821081104
  0
LINE
 8
GROUP0
10
420.583319261315
20
1864.54199722515
30
0.000148943821081104
11
417.985243049966
21
1866.04199722515
31
0.000143898351849714
  0
LINE
 8
GROUP0
10
417.985243049966
20
1866.04199722515
30
0.000143898351849714
11
417.985243049968
21
1869.04199722515
31
0.00014264102769701
  0
LINE
 8
GROUP0
10
417.985243049968
20
1869.04199722515
30
0.00014264102769701
11
420.583319261318
21
1870.54199722515
31
0.000146429171783069
  0
LINE
 8
GROUP0
10
397.494876283689
20
1876.14007283674
30
0.00011919746753648
11
400.092952495039
21
1877.64007283674
31
0.000122985611803017
  0
LINE
 8
GROUP0
10
400.092952495039
20
1877.64007283674
30
0.000122985611803017
11
402.691028706387
21
1876.14007283674
31
0.000128031080673452
  0
LINE
 8
GROUP0
10
402.691028706387
20
1876.14007283674
30
0.000128031080673452
11
402.691028706385
21
1873.14007283674
31
0.000129288404826156
  0
LINE
 8
GROUP0
10
402.691028706385
20
1873.14007283674
30
0.000129288404826156
11
400.092952495035
21
1871.64007283674
31
0.000125500261101053
  0
LINE
 8
GROUP0
10
400.092952495035
20
1871.64007283674
30
0.000125500261101053
11
397.494876283686
21
1873.14007283674
31
0.000120454792501334
  0
LINE
 8
GROUP0
10
397.494876283686
20
1873.14007283674
30
0.000120454792501334
11
397.494876283689
21
1876.14007283674
31
0.00011919746753648
  0
LINE
 8
GROUP0
10
405.691028706388
20
1876.14007283674
30
0.00011919746753648
11
408.289104917737
21
1877.64007283674
31
0.0001229856115323
  0
LINE
 8
GROUP0
10
408.289104917737
20
1877.64007283674
30
0.0001229856115323
11
410.887181129086
21
1876.14007283674
31
0.000128031080673452
  0
LINE
 8
GROUP0
10
410.887181129086
20
1876.14007283674
30
0.000128031080673452
11
410.887181129084
21
1873.14007283674
31
0.000129288404826156
  0
LINE
 8
GROUP0
10
410.887181129084
20
1873.14007283674
30
0.000129288404826156
11
408.289104917734
21
1871.64007283674
31
0.000125500261101053
  0
LINE
 8
GROUP0
10
408.289104917734
20
1871.64007283674
30
0.000125500261101053
11
405.691028706385
21
1873.14007283674
31
0.000120454792501334
  0
LINE
 8
GROUP0
10
405.691028706385
20
1873.14007283674
30
0.000120454792501334
11
405.691028706388
21
1876.14007283674
31
0.00011919746753648
  0
LINE
 8
GROUP0
10
432.877562185802
20
1863.44392041404
30
8.05950007709555e-005
11
435.475638397153
21
1861.94392041404
31
8.28997995334646e-005
  0
LINE
 8
GROUP0
10
435.475638397153
20
1861.94392041404
30
8.28997995334646e-005
11
435.475638397152
21
1858.94392041404
31
8.48933034141908e-005
  0
LINE
 8
GROUP0
10
435.475638397152
20
1858.94392041404
30
8.48933034141908e-005
11
432.877562185799
21
1857.44392041404
31
8.45820097055139e-005
  0
LINE
 8
GROUP0
10
432.877562185799
20
1857.44392041404
30
8.45820097055139e-005
11
430.279485974447
21
1858.94392041404
31
8.22772116649162e-005
  0
LINE
 8
GROUP0
10
430.279485974447
20
1858.94392041404
30
8.22772116649162e-005
11
430.279485974449
21
1861.94392041404
31
8.02837068818008e-005
  0
LINE
 8
GROUP0
10
430.279485974449
20
1861.94392041404
30
8.02837068818008e-005
11
432.877562185802
21
1863.44392041404
31
8.05950007709555e-005
  0
LINE
 8
GROUP0
10
401.592951456217
20
1869.04199722518
30
0.000120871094723185
11
404.191027667568
21
1870.54199722518
31
0.000124659238448288
  0
LINE
 8
GROUP0
10
404.191027667568
20
1870.54199722518
30
0.000124659238448288
11
406.789103878915
21
1869.04199722518
31
0.000129704706867528
  0
LINE
 8
GROUP0
10
406.789103878915
20
1869.04199722518
30
0.000129704706867528
11
406.789103878913
21
1866.04199722518
31
0.000130962031742143
  0
LINE
 8
GROUP0
10
406.789103878913
20
1866.04199722518
30
0.000130962031742143
11
404.191027667563
21
1864.54199722518
31
0.000127173887385368
  0
LINE
 8
GROUP0
10
404.191027667563
20
1864.54199722518
30
0.000127173887385368
11
401.592951456215
21
1866.04199722518
31
0.000122128419507561
  0
LINE
 8
GROUP0
10
401.592951456215
20
1866.04199722518
30
0.000122128419507561
11
401.592951456217
21
1869.04199722518
31
0.000120871094723185
  0
LINE
 8
GROUP0
10
402.691028706383
20
1861.94392041406
30
0.000122128628771634
11
402.691028706381
21
1858.94392041406
31
0.000124122133374271
  0
LINE
 8
GROUP0
10
402.691028706381
20
1858.94392041406
30
0.000124122133374271
11
400.092952495027
21
1857.44392041407
31
0.000123810839304639
  0
LINE
 8
GROUP0
10
400.092952495027
20
1857.44392041407
30
0.000123810839304639
11
397.494876283676
21
1858.94392041407
31
0.000121506041444519
  0
LINE
 8
GROUP0
10
397.494876283676
20
1858.94392041407
30
0.000121506041444519
11
397.494876283678
21
1861.94392041406
31
0.000119512536661404
  0
LINE
 8
GROUP0
10
397.494876283678
20
1861.94392041406
30
0.000119512536661404
11
400.092952495031
21
1863.44392041406
31
0.000119823830099364
  0
LINE
 8
GROUP0
10
400.092952495031
20
1863.44392041406
30
0.000119823830099364
11
402.691028706383
21
1861.94392041406
31
0.000122128628771634
  0
LINE
 8
GROUP0
10
410.887181129076
20
1861.94392041406
30
0.000112321421529771
11
410.887181129074
21
1858.94392041406
31
0.000114314926042169
  0
LINE
 8
GROUP0
10
410.887181129074
20
1858.94392041406
30
0.000114314926042169
11
408.289104917721
21
1857.44392041406
31
0.000114003632062776
  0
LINE
 8
GROUP0
10
408.289104917721
20
1857.44392041406
30
0.000114003632062776
11
405.691028706368
21
1858.94392041406
31
0.000111698833661222
  0
LINE
 8
GROUP0
10
405.691028706368
20
1858.94392041406
30
0.000111698833661222
11
405.69102870637
21
1861.94392041406
31
0.000109705328787868
  0
LINE
 8
GROUP0
10
405.69102870637
20
1861.94392041406
30
0.000109705328787868
11
408.289104917724
21
1863.44392041406
31
0.00011001662294774
  0
LINE
 8
GROUP0
10
408.289104917724
20
1863.44392041406
30
0.00011001662294774
11
410.887181129076
21
1861.94392041406
31
0.000112321421529771
  0
LINE
 8
GROUP0
10
419.083333551782
20
1873.14007283674
30
0.000129288404826156
11
416.485257340432
21
1871.64007283674
31
0.000125500261101053
  0
LINE
 8
GROUP0
10
416.485257340432
20
1871.64007283674
30
0.000125500261101053
11
413.887181129083
21
1873.14007283674
31
0.000120454792501334
  0
LINE
 8
GROUP0
10
413.887181129083
20
1873.14007283674
30
0.000120454792501334
11
413.887181129086
21
1876.14007283674
31
0.00011919746753648
  0
LINE
 8
GROUP0
10
413.887181129086
20
1876.14007283674
30
0.00011919746753648
11
416.485257340436
21
1877.64007283674
31
0.000122985611803017
  0
LINE
 8
GROUP0
10
416.485257340436
20
1877.64007283674
30
0.000122985611803017
11
419.083333551784
21
1876.14007283674
31
0.000128031080673452
  0
LINE
 8
GROUP0
10
419.083333551784
20
1876.14007283674
30
0.000128031080673452
11
419.083333551782
21
1873.14007283674
31
0.000129288404826156
  0
LINE
 8
GROUP0
10
409.789092704846
20
1869.04199722515
30
0.000142641027426293
11
412.387168916197
21
1870.54199722515
31
0.000146429171783069
  0
LINE
 8
GROUP0
10
412.387168916197
20
1870.54199722515
30
0.000146429171783069
11
414.985245127545
21
1869.04199722515
31
0.000151474639841354
  0
LINE
 8
GROUP0
10
414.985245127545
20
1869.04199722515
30
0.000151474639841354
11
414.985245127542
21
1866.04199722515
31
0.000152731964355013
  0
LINE
 8
GROUP0
10
414.985245127542
20
1866.04199722515
30
0.000152731964355013
11
412.387168916193
21
1864.54199722515
31
0.000148943821081104
  0
LINE
 8
GROUP0
10
412.387168916193
20
1864.54199722515
30
0.000148943821081104
11
409.789092704844
21
1866.04199722515
31
0.000143898351849714
  0
LINE
 8
GROUP0
10
409.789092704844
20
1866.04199722515
30
0.000143898351849714
11
409.789092704846
21
1869.04199722515
31
0.000142641027426293
  0
LINE
 8
GROUP0
10
423.181395472665
20
1880.23814964783
30
0.000152731964084296
11
420.583319261315
21
1878.73814964783
31
0.000148943820990866
  0
LINE
 8
GROUP0
10
420.583319261315
20
1878.73814964783
30
0.000148943820990866
11
417.985243049966
21
1880.23814964783
31
0.000143898351669236
  0
LINE
 8
GROUP0
10
417.985243049966
20
1880.23814964783
30
0.000143898351669236
11
417.985243049968
21
1883.23814964783
31
0.000142641027155577
  0
LINE
 8
GROUP0
10
417.985243049968
20
1883.23814964783
30
0.000142641027155577
11
420.583319261318
21
1884.73814964783
31
0.000146429172008666
  0
LINE
 8
GROUP0
10
420.583319261318
20
1884.73814964783
30
0.000146429172008666
11
423.181395472667
21
1883.23814964783
31
0.00015147464011207
  0
LINE
 8
GROUP0
10
423.181395472667
20
1883.23814964783
30
0.00015147464011207
11
423.181395472665
21
1880.23814964783
31
0.000152731964084296
  0
LINE
 8
GROUP0
10
398.592953533792
20
1866.04199722518
30
0.000130962031742143
11
395.994877322441
21
1864.54199722518
31
0.000127173887475607
  0
LINE
 8
GROUP0
10
395.994877322441
20
1864.54199722518
30
0.000127173887475607
11
393.396801111093
21
1866.04199722518
31
0.000122128419507561
  0
LINE
 8
GROUP0
10
393.396801111093
20
1866.04199722518
30
0.000122128419507561
11
393.396801111095
21
1869.04199722518
31
0.000120871094723185
  0
LINE
 8
GROUP0
10
393.396801111095
20
1869.04199722518
30
0.000120871094723185
11
395.994877322445
21
1870.54199722518
31
0.000124659238448288
  0
LINE
 8
GROUP0
10
395.994877322445
20
1870.54199722518
30
0.000124659238448288
11
398.592953533794
21
1869.04199722518
31
0.000129704706957767
  0
LINE
 8
GROUP0
10
398.592953533794
20
1869.04199722518
30
0.000129704706957767
11
398.592953533792
21
1866.04199722518
31
0.000130962031742143
  0
LINE
 8
GROUP0
10
432.877562185829
20
1871.64007283674
30
0.000125500261101053
11
430.279485974481
21
1873.14007283674
31
0.000120454792501334
  0
LINE
 8
GROUP0
10
430.279485974481
20
1873.14007283674
30
0.000120454792501334
11
430.279485974483
21
1876.14007283674
31
0.00011919746753648
  0
LINE
 8
GROUP0
10
430.279485974483
20
1876.14007283674
30
0.00011919746753648
11
432.877562185834
21
1877.64007283674
31
0.000122985611803017
  0
LINE
 8
GROUP0
10
432.877562185834
20
1877.64007283674
30
0.000122985611803017
11
435.475638397181
21
1876.14007283674
31
0.000128031080673452
  0
LINE
 8
GROUP0
10
435.475638397181
20
1876.14007283674
30
0.000128031080673452
11
435.475638397179
21
1873.14007283674
31
0.000129288404826156
  0
LINE
 8
GROUP0
10
435.475638397179
20
1873.14007283674
30
0.000129288404826156
11
432.877562185829
21
1871.64007283674
31
0.000125500261101053
  0
LINE
 8
GROUP0
10
426.181393395086
20
1869.04200163897
30
0.000151826987659831
11
428.779469606436
21
1870.54200163897
31
0.000155615131836129
  0
LINE
 8
GROUP0
10
428.779469606436
20
1870.54200163897
30
0.000155615131836129
11
431.377545817785
21
1869.04200163897
31
0.000160660600255369
  0
LINE
 8
GROUP0
10
431.377545817785
20
1869.04200163897
30
0.000160660600255369
11
431.377545817783
21
1866.04200163897
31
0.000161917925039745
  0
LINE
 8
GROUP0
10
431.377545817783
20
1866.04200163897
30
0.000161917925039745
11
428.779469606433
21
1864.54200163897
31
0.000158129780863447
  0
LINE
 8
GROUP0
10
428.779469606433
20
1864.54200163897
30
0.000158129780863447
11
426.181393395084
21
1866.04200163897
31
0.000153084311632057
  0
LINE
 8
GROUP0
10
426.181393395084
20
1866.04200163897
30
0.000153084311632057
11
426.181393395086
21
1869.04200163897
31
0.000151826987659831
  0
LINE
 8
GROUP0
10
427.279485974461
20
1861.94392041405
30
9.27070066850888e-005
11
427.27948597446
21
1858.94392041405
31
9.47005113779653e-005
  0
LINE
 8
GROUP0
10
427.27948597446
20
1858.94392041405
30
9.47005113779653e-005
11
424.681409763106
21
1857.44392041405
31
9.43892166766602e-005
  0
LINE
 8
GROUP0
10
424.681409763106
20
1857.44392041405
30
9.43892166766602e-005
11
422.083333551753
21
1858.94392041405
31
9.20844189067793e-005
  0
LINE
 8
GROUP0
10
422.083333551753
20
1858.94392041405
30
9.20844189067793e-005
11
422.083333551756
21
1861.94392041405
31
9.00909140334249e-005
  0
LINE
 8
GROUP0
10
422.083333551756
20
1861.94392041405
30
9.00909140334249e-005
11
424.681409763109
21
1863.44392041405
31
9.04022080128186e-005
  0
LINE
 8
GROUP0
10
424.681409763109
20
1863.44392041405
30
9.04022080128186e-005
11
427.279485974461
21
1861.94392041405
31
9.27070066850888e-005
  0
LINE
 8
GROUP0
10
413.887181129063
20
1861.94392041405
30
9.98981216362438e-005
11
416.485257340416
21
1863.44392041405
31
0.000100209415615637
  0
LINE
 8
GROUP0
10
416.485257340416
20
1863.44392041405
30
0.000100209415615637
11
419.083333551769
21
1861.94392041405
31
0.00010251421410743
  0
LINE
 8
GROUP0
10
419.083333551769
20
1861.94392041405
30
0.00010251421410743
11
419.083333551767
21
1858.94392041405
31
0.000104507718258873
  0
LINE
 8
GROUP0
10
419.083333551767
20
1858.94392041405
30
0.000104507718258873
11
416.485257340413
21
1857.44392041405
31
0.00010419642418924
  0
LINE
 8
GROUP0
10
416.485257340413
20
1857.44392041405
30
0.00010419642418924
11
413.887181129061
21
1858.94392041405
31
0.000101891625877926
  0
LINE
 8
GROUP0
10
413.887181129061
20
1858.94392041405
30
0.000101891625877926
11
413.887181129063
21
1861.94392041405
31
9.98981216362438e-005
  0
LINE
 8
GROUP0
10
404.191027667555
20
1850.3458448025
30
0.000124012105681715
11
401.592951456207
21
1851.8458448025
31
0.000118966637352713
  0
LINE
 8
GROUP0
10
401.592951456207
20
1851.8458448025
30
0.000118966637352713
11
401.592951456209
21
1854.8458448025
31
0.000117709312839054
  0
LINE
 8
GROUP0
10
401.592951456209
20
1854.8458448025
30
0.000117709312839054
11
404.19102766756
21
1856.3458448025
31
0.00012149745710559
  0
LINE
 8
GROUP0
10
404.19102766756
20
1856.3458448025
30
0.00012149745710559
11
406.789103878907
21
1854.8458448025
31
0.000126542925705309
  0
LINE
 8
GROUP0
10
406.789103878907
20
1854.8458448025
30
0.000126542925705309
11
406.789103878905
21
1851.8458448025
31
0.000127800250579924
  0
LINE
 8
GROUP0
10
406.789103878905
20
1851.8458448025
30
0.000127800250579924
11
404.191027667555
21
1850.3458448025
31
0.000124012105681715
  0
LINE
 8
GROUP0
10
477.956362580658
20
1878.73816730308
30
0.000207457593725735
11
475.35828636931
21
1880.23816730307
31
0.000202412126028406
  0
LINE
 8
GROUP0
10
475.35828636931
20
1880.23816730307
30
0.000202412126028406
11
475.358286369312
21
1883.23816730307
31
0.00020115480124403
  0
LINE
 8
GROUP0
10
475.358286369312
20
1883.23816730307
30
0.00020115480124403
11
477.956362580662
21
1884.73816730307
31
0.000204942945510567
  0
LINE
 8
GROUP0
10
477.956362580662
20
1884.73816730307
30
0.000204942945510567
11
480.55443879201
21
1883.23816730307
31
0.000209988414020046
  0
LINE
 8
GROUP0
10
480.55443879201
20
1883.23816730307
30
0.000209988414020046
11
480.554438792008
21
1880.23816730308
31
0.000211245738623944
  0
LINE
 8
GROUP0
10
480.554438792008
20
1880.23816730308
30
0.000211245738623944
11
477.956362580658
21
1878.73816730308
31
0.000207457593725735
  0
LINE
 8
GROUP0
10
502.544804519531
20
1878.73816730305
30
0.000229227527872666
11
499.946728308183
21
1880.23816730305
31
0.000224182058551037
  0
LINE
 8
GROUP0
10
499.946728308183
20
1880.23816730305
30
0.000224182058551037
11
499.946728308185
21
1883.23816730305
31
0.000222924734037377
  0
LINE
 8
GROUP0
10
499.946728308185
20
1883.23816730305
30
0.000222924734037377
11
502.544804519535
21
1884.73816730305
31
0.000226712878935587
  0
LINE
 8
GROUP0
10
502.544804519535
20
1884.73816730305
30
0.000226712878935587
11
505.142880730884
21
1883.23816730305
31
0.000231758346993871
  0
LINE
 8
GROUP0
10
505.142880730884
20
1883.23816730305
30
0.000231758346993871
11
505.142880730882
21
1880.23816730305
31
0.000233015670966097
  0
LINE
 8
GROUP0
10
505.142880730882
20
1880.23816730305
30
0.000233015670966097
11
502.544804519531
21
1878.73816730305
31
0.000229227527872666
  0
LINE
 8
GROUP0
10
483.554436714432
20
1880.23816730307
30
0.000202412126028406
11
483.554436714433
21
1883.23816730307
31
0.000201154801153791
  0
LINE
 8
GROUP0
10
483.554436714433
20
1883.23816730307
30
0.000201154801153791
11
486.152512925784
21
1884.73816730307
31
0.000204942945510567
  0
LINE
 8
GROUP0
10
486.152512925784
20
1884.73816730307
30
0.000204942945510567
11
488.750589137133
21
1883.23816730307
31
0.000209988414020046
  0
LINE
 8
GROUP0
10
488.750589137133
20
1883.23816730307
30
0.000209988414020046
11
488.75058913713
21
1880.23816730308
31
0.000211245738623944
  0
LINE
 8
GROUP0
10
488.75058913713
20
1880.23816730308
30
0.000211245738623944
11
486.15251292578
21
1878.73816730308
31
0.000207457593725735
  0
LINE
 8
GROUP0
10
486.15251292578
20
1878.73816730308
30
0.000207457593725735
11
483.554436714432
21
1880.23816730307
31
0.000202412126028406
  0
LINE
 8
GROUP0
10
504.044818809999
20
1873.14009049196
30
0.000200738499383135
11
504.044818810002
21
1876.14009049196
31
0.000199481174418281
  0
LINE
 8
GROUP0
10
504.044818810002
20
1876.14009049196
30
0.000199481174418281
11
506.642895021352
21
1877.64009049196
31
0.000203269318684818
  0
LINE
 8
GROUP0
10
506.642895021352
20
1877.64009049196
30
0.000203269318684818
11
509.2409712327
21
1876.14009049196
31
0.000208314787555253
  0
LINE
 8
GROUP0
10
509.2409712327
20
1876.14009049196
30
0.000208314787555253
11
509.240971232698
21
1873.14009049197
31
0.000209572111707956
  0
LINE
 8
GROUP0
10
509.240971232698
20
1873.14009049197
30
0.000209572111707956
11
506.642895021348
21
1871.64009049197
31
0.000205783967982853
  0
LINE
 8
GROUP0
10
506.642895021348
20
1871.64009049197
30
0.000205783967982853
11
504.044818809999
21
1873.14009049196
31
0.000200738499383135
  0
LINE
 8
GROUP0
10
486.152512925772
20
1850.34586245773
30
0.000204295812608635
11
483.554436714424
21
1851.84586245773
31
0.000199250344279633
  0
LINE
 8
GROUP0
10
483.554436714424
20
1851.84586245773
30
0.000199250344279633
11
483.554436714426
21
1854.84586245772
31
0.000197993019765974
  0
LINE
 8
GROUP0
10
483.554436714426
20
1854.84586245772
30
0.000197993019765974
11
486.152512925776
21
1856.34586245772
31
0.000201781164032511
  0
LINE
 8
GROUP0
10
486.152512925776
20
1856.34586245772
30
0.000201781164032511
11
488.750589137124
21
1854.84586245772
31
0.000206826632632229
  0
LINE
 8
GROUP0
10
488.750589137124
20
1854.84586245772
30
0.000206826632632229
11
488.750589137122
21
1851.84586245772
31
0.000208083957506844
  0
LINE
 8
GROUP0
10
488.750589137122
20
1851.84586245772
30
0.000208083957506844
11
486.152512925772
21
1850.34586245773
31
0.000204295812608635
  0
LINE
 8
GROUP0
10
495.848666387279
20
1861.94393806928
30
0.000180181828518045
11
498.446742598633
21
1863.44393806928
31
0.000180493122497438
  0
LINE
 8
GROUP0
10
498.446742598633
20
1863.44393806928
30
0.000180493122497438
11
501.044818809985
21
1861.94393806928
31
0.000182797920989231
  0
LINE
 8
GROUP0
10
501.044818809985
20
1861.94393806928
30
0.000182797920989231
11
501.044818809984
21
1858.94393806928
31
0.000184791425185793
  0
LINE
 8
GROUP0
10
501.044818809984
20
1858.94393806928
30
0.000184791425185793
11
498.44674259863
21
1857.44393806928
31
0.00018448013111616
  0
LINE
 8
GROUP0
10
498.44674259863
20
1857.44393806928
30
0.00018448013111616
11
495.848666387277
21
1858.94393806928
31
0.000182175332804846
  0
LINE
 8
GROUP0
10
495.848666387277
20
1858.94393806928
30
0.000182175332804846
11
495.848666387279
21
1861.94393806928
31
0.000180181828518045
  0
LINE
 8
GROUP0
10
484.6525139646
20
1861.94393806929
30
0.000202412335653435
11
484.652513964598
21
1858.94393806929
31
0.000204405840256072
  0
LINE
 8
GROUP0
10
484.652513964598
20
1858.94393806929
30
0.000204405840256072
11
482.054437753244
21
1857.44393806929
31
0.00020409454618644
  0
LINE
 8
GROUP0
10
482.054437753244
20
1857.44393806929
30
0.00020409454618644
11
479.456361541892
21
1858.94393806929
31
0.00020178974832632
  0
LINE
 8
GROUP0
10
479.456361541892
20
1858.94393806929
30
0.00020178974832632
11
479.456361541894
21
1861.94393806929
31
0.000199796243543204
  0
LINE
 8
GROUP0
10
479.456361541894
20
1861.94393806929
30
0.000199796243543204
11
482.054437753248
21
1863.44393806929
31
0.000200107536981164
  0
LINE
 8
GROUP0
10
482.054437753248
20
1863.44393806929
30
0.000200107536981164
11
484.6525139646
21
1861.94393806929
31
0.000202412335653435
  0
LINE
 8
GROUP0
10
498.446742598652
20
1877.64009049196
30
0.000203269318684818
11
501.044818810001
21
1876.14009049196
31
0.000208314787555253
  0
LINE
 8
GROUP0
10
501.044818810001
20
1876.14009049196
30
0.000208314787555253
11
501.044818809999
21
1873.14009049197
31
0.000209572111707956
  0
LINE
 8
GROUP0
10
501.044818809999
20
1873.14009049197
30
0.000209572111707956
11
498.446742598649
21
1871.64009049197
31
0.000205783967982853
  0
LINE
 8
GROUP0
10
498.446742598649
20
1871.64009049197
30
0.000205783967982853
11
495.8486663873
21
1873.14009049196
31
0.000200738499383135
  0
LINE
 8
GROUP0
10
495.8486663873
20
1873.14009049196
30
0.000200738499383135
11
495.848666387303
21
1876.14009049196
31
0.000199481174418281
  0
LINE
 8
GROUP0
10
495.848666387303
20
1876.14009049196
30
0.000199481174418281
11
498.446742598652
21
1877.64009049196
31
0.000203269318684818
  0
LINE
 8
GROUP0
10
486.15251292578
20
1864.5420148804
30
0.000207457594267169
11
483.554436714432
21
1866.0420148804
31
0.000202412126389362
  0
LINE
 8
GROUP0
10
483.554436714432
20
1866.0420148804
30
0.000202412126389362
11
483.554436714434
21
1869.0420148804
31
0.000201154801604986
  0
LINE
 8
GROUP0
10
483.554436714434
20
1869.0420148804
30
0.000201154801604986
11
486.152512925784
21
1870.5420148804
31
0.000204942945330089
  0
LINE
 8
GROUP0
10
486.152512925784
20
1870.5420148804
30
0.000204942945330089
11
488.750589137132
21
1869.0420148804
31
0.000209988413749329
  0
LINE
 8
GROUP0
10
488.750589137132
20
1869.0420148804
30
0.000209988413749329
11
488.75058913713
21
1866.0420148804
31
0.000211245738623944
  0
LINE
 8
GROUP0
10
488.75058913713
20
1866.0420148804
30
0.000211245738623944
11
486.15251292578
21
1864.5420148804
31
0.000207457594267169
  0
LINE
 8
GROUP0
10
510.740954864653
20
1870.54201929419
30
0.000235898838717929
11
513.339031076002
21
1869.0420192942
31
0.00024094430713717
  0
LINE
 8
GROUP0
10
513.339031076002
20
1869.0420192942
30
0.00024094430713717
11
513.339031075999
21
1866.0420192942
31
0.000242201631921546
  0
LINE
 8
GROUP0
10
513.339031075999
20
1866.0420192942
30
0.000242201631921546
11
510.740954864649
21
1864.5420192942
31
0.000238413487745248
  0
LINE
 8
GROUP0
10
510.740954864649
20
1864.5420192942
30
0.000238413487745248
11
508.142878653301
21
1866.0420192942
31
0.000233368018513858
  0
LINE
 8
GROUP0
10
508.142878653301
20
1866.0420192942
30
0.000233368018513858
11
508.142878653303
21
1869.04201929419
31
0.000232110694541632
  0
LINE
 8
GROUP0
10
508.142878653303
20
1869.04201929419
30
0.000232110694541632
11
510.740954864653
21
1870.54201929419
31
0.000235898838717929
  0
LINE
 8
GROUP0
10
492.848666387291
20
1858.94393806928
30
0.00019459863292397
11
490.250590175937
21
1857.44393806928
31
0.000194287338989696
  0
LINE
 8
GROUP0
10
490.250590175937
20
1857.44393806928
30
0.000194287338989696
11
487.652513964585
21
1858.94393806928
31
0.000191982540543023
  0
LINE
 8
GROUP0
10
487.652513964585
20
1858.94393806928
30
0.000191982540543023
11
487.652513964587
21
1861.94393806928
31
0.000189989035669669
  0
LINE
 8
GROUP0
10
487.652513964587
20
1861.94393806928
30
0.000189989035669669
11
490.250590175941
21
1863.44393806928
31
0.00019030032982954
  0
LINE
 8
GROUP0
10
490.250590175941
20
1863.44393806928
30
0.00019030032982954
11
492.848666387292
21
1861.94393806928
31
0.000192605128411572
  0
LINE
 8
GROUP0
10
492.848666387292
20
1861.94393806928
30
0.000192605128411572
11
492.848666387291
21
1858.94393806928
31
0.00019459863292397
  0
LINE
 8
GROUP0
10
502.544804519524
20
1850.3458624577
30
0.000226065745492221
11
499.946728308175
21
1851.8458624577
31
0.000221020276892503
  0
LINE
 8
GROUP0
10
499.946728308175
20
1851.8458624577
30
0.000221020276892503
11
499.946728308177
21
1854.8458624577
31
0.000219762952378844
  0
LINE
 8
GROUP0
10
499.946728308177
20
1854.8458624577
30
0.000219762952378844
11
502.544804519527
21
1856.3458624577
31
0.000223551097096575
  0
LINE
 8
GROUP0
10
502.544804519527
20
1856.3458624577
30
0.000223551097096575
11
505.142880730876
21
1854.8458624577
31
0.000228596565425576
  0
LINE
 8
GROUP0
10
505.142880730876
20
1854.8458624577
30
0.000228596565425576
11
505.142880730873
21
1851.8458624577
31
0.000229853890119713
  0
LINE
 8
GROUP0
10
505.142880730873
20
1851.8458624577
30
0.000229853890119713
11
502.544804519524
21
1850.3458624577
31
0.000226065745492221
  0
LINE
 8
GROUP0
10
480.554438792003
20
1854.84586245772
30
0.000206826632722468
11
480.554438792001
21
1851.84586245772
31
0.000208083957416605
  0
LINE
 8
GROUP0
10
480.554438792001
20
1851.84586245772
30
0.000208083957416605
11
477.95636258065
21
1850.34586245773
31
0.000204295812608635
  0
LINE
 8
GROUP0
10
477.95636258065
20
1850.34586245773
30
0.000204295812608635
11
475.358286369301
21
1851.84586245773
31
0.000199250344279633
  0
LINE
 8
GROUP0
10
475.358286369301
20
1851.84586245773
30
0.000199250344279633
11
475.358286369304
21
1854.84586245772
31
0.000197993019856213
  0
LINE
 8
GROUP0
10
475.358286369304
20
1854.84586245772
30
0.000197993019856213
11
477.956362580654
21
1856.34586245772
31
0.000201781164754422
  0
LINE
 8
GROUP0
10
477.956362580654
20
1856.34586245772
30
0.000201781164754422
11
480.554438792003
21
1854.84586245772
31
0.000206826632722468
  0
LINE
 8
GROUP0
10
496.946730385759
20
1866.04201488038
30
0.000233015671236814
11
494.34865417441
21
1864.54201488038
31
0.000229227527962905
  0
LINE
 8
GROUP0
10
494.34865417441
20
1864.54201488038
30
0.000229227527962905
11
491.750577963061
21
1866.04201488038
31
0.000224182058731515
  0
LINE
 8
GROUP0
10
491.750577963061
20
1866.04201488038
30
0.000224182058731515
11
491.750577963063
21
1869.04201488038
31
0.000222924734308094
  0
LINE
 8
GROUP0
10
491.750577963063
20
1869.04201488038
30
0.000222924734308094
11
494.348654174413
21
1870.54201488038
31
0.00022671287866487
  0
LINE
 8
GROUP0
10
494.348654174413
20
1870.54201488038
30
0.00022671287866487
11
496.946730385762
21
1869.04201488038
31
0.000231758346723154
  0
LINE
 8
GROUP0
10
496.946730385762
20
1869.04201488038
30
0.000231758346723154
11
496.946730385759
21
1866.04201488038
31
0.000233015671236814
  0
LINE
 8
GROUP0
10
505.142880730884
20
1869.04201488038
30
0.000231758346632915
11
505.142880730882
21
1866.04201488038
31
0.000233015671236814
  0
LINE
 8
GROUP0
10
505.142880730882
20
1866.04201488038
30
0.000233015671236814
11
502.544804519532
21
1864.54201488038
31
0.000229227527962905
  0
LINE
 8
GROUP0
10
502.544804519532
20
1864.54201488038
30
0.000229227527962905
11
499.946728308183
21
1866.04201488038
31
0.000224182058731515
  0
LINE
 8
GROUP0
10
499.946728308183
20
1866.04201488038
30
0.000224182058731515
11
499.946728308185
21
1869.04201488038
31
0.000222924734578811
  0
LINE
 8
GROUP0
10
499.946728308185
20
1869.04201488038
30
0.000222924734578811
11
502.544804519535
21
1870.54201488038
31
0.00022671287866487
  0
LINE
 8
GROUP0
10
502.544804519535
20
1870.54201488038
30
0.00022671287866487
11
505.142880730884
21
1869.04201488038
31
0.000231758346632915
  0
LINE
 8
GROUP0
10
510.740954864645
20
1856.34586687152
30
0.000232737056969157
11
513.339031075993
21
1854.84586687152
31
0.000237782525659114
  0
LINE
 8
GROUP0
10
513.339031075993
20
1854.84586687152
30
0.000237782525659114
11
513.339031075992
21
1851.84586687152
31
0.000239039849721578
  0
LINE
 8
GROUP0
10
513.339031075992
20
1851.84586687152
30
0.000239039849721578
11
510.740954864641
21
1850.34586687152
31
0.000235251706086714
  0
LINE
 8
GROUP0
10
510.740954864641
20
1850.34586687152
30
0.000235251706086714
11
508.142878653293
21
1851.84586687152
31
0.000230206236765085
  0
LINE
 8
GROUP0
10
508.142878653293
20
1851.84586687152
30
0.000230206236765085
11
508.142878653295
21
1854.84586687152
31
0.000228948913244054
  0
LINE
 8
GROUP0
10
508.142878653295
20
1854.84586687152
30
0.000228948913244054
11
510.740954864645
21
1856.34586687152
31
0.000232737056969157
  0
LINE
 8
GROUP0
10
509.240971232678
20
1861.94393806927
30
0.00017299071356689
11
509.240971232677
21
1858.94393806927
31
0.000174984218304886
  0
LINE
 8
GROUP0
10
509.240971232677
20
1858.94393806927
30
0.000174984218304886
11
506.642895021322
21
1857.44393806927
31
0.00017467292360358
  0
LINE
 8
GROUP0
10
506.642895021322
20
1857.44393806927
30
0.00017467292360358
11
504.04481880997
21
1858.94393806927
31
0.0001723681258337
  0
LINE
 8
GROUP0
10
504.04481880997
20
1858.94393806927
30
0.0001723681258337
11
504.044818809973
21
1861.94393806927
31
0.000170374620915226
  0
LINE
 8
GROUP0
10
504.044818809973
20
1861.94393806927
30
0.000170374620915226
11
506.642895021326
21
1863.44393806927
31
0.000170685914894619
  0
LINE
 8
GROUP0
10
506.642895021326
20
1863.44393806927
30
0.000170685914894619
11
509.240971232678
21
1861.94393806927
31
0.00017299071356689
  0
LINE
 8
GROUP0
10
496.946730385751
20
1851.8458624577
30
0.000229853890119713
11
494.348654174401
21
1850.3458624577
31
0.000226065745492221
  0
LINE
 8
GROUP0
10
494.348654174401
20
1850.3458624577
30
0.000226065745492221
11
491.750577963053
21
1851.8458624577
31
0.000221020277343698
  0
LINE
 8
GROUP0
10
491.750577963053
20
1851.8458624577
30
0.000221020277343698
11
491.750577963055
21
1854.8458624577
31
0.000219762952469083
  0
LINE
 8
GROUP0
10
491.750577963055
20
1854.8458624577
30
0.000219762952469083
11
494.348654174405
21
1856.3458624577
31
0.000223551097186814
  0
LINE
 8
GROUP0
10
494.348654174405
20
1856.3458624577
30
0.000223551097186814
11
496.946730385753
21
1854.8458624577
31
0.000228596565606054
  0
LINE
 8
GROUP0
10
496.946730385753
20
1854.8458624577
30
0.000228596565606054
11
496.946730385751
21
1851.8458624577
31
0.000229853890119713
  0
LINE
 8
GROUP0
10
480.55443879201
20
1869.0420148804
30
0.000209988413839568
11
480.554438792008
21
1866.0420148804
31
0.000211245738623944
  0
LINE
 8
GROUP0
10
480.554438792008
20
1866.0420148804
30
0.000211245738623944
11
477.956362580658
21
1864.5420148804
31
0.000207457594357408
  0
LINE
 8
GROUP0
10
477.956362580658
20
1864.5420148804
30
0.000207457594357408
11
475.35828636931
21
1866.0420148804
31
0.000202412126389362
  0
LINE
 8
GROUP0
10
475.35828636931
20
1866.0420148804
30
0.000202412126389362
11
475.358286369312
21
1869.0420148804
31
0.000201154801604986
  0
LINE
 8
GROUP0
10
475.358286369312
20
1869.0420148804
30
0.000201154801604986
11
477.956362580662
21
1870.5420148804
31
0.000204942945330089
  0
LINE
 8
GROUP0
10
477.956362580662
20
1870.5420148804
30
0.000204942945330089
11
480.55443879201
21
1869.0420148804
31
0.000209988413839568
  0
LINE
 8
GROUP0
10
427.088236402305
20
1852.29198398375
30
3.60859867903685e-005
11
426.938385768548
21
1851.93021255141
31
3.60859869708463e-005
  0
LINE
 8
GROUP0
10
427.326614336202
20
1852.60264415553
30
3.60859866550101e-005
11
427.088236402305
21
1852.29198398375
31
3.60859867903685e-005
  0
LINE
 8
GROUP0
10
427.637274507982
20
1852.84102208943
30
3.60859864294127e-005
11
427.326614336202
21
1852.60264415553
31
3.60859866550101e-005
  0
LINE
 8
GROUP0
10
427.999045940328
20
1852.99087272319
30
3.60859865196517e-005
11
427.637274507982
21
1852.84102208943
31
3.60859864294127e-005
  0
LINE
 8
GROUP0
10
428.387274507982
20
1853.04198398375
30
3.60859864745322e-005
11
427.999045940328
21
1852.99087272319
31
3.60859865196517e-005
  0
LINE
 8
GROUP0
10
428.775503075635
20
1852.99087272319
30
3.60859867001295e-005
11
428.387274507982
21
1853.04198398375
31
3.60859864745322e-005
  0
LINE
 8
GROUP0
10
429.137274507982
20
1852.84102208943
30
3.60859866550101e-005
11
428.775503075635
21
1852.99087272319
31
3.60859867001295e-005
  0
LINE
 8
GROUP0
10
429.447934679762
20
1852.60264415553
30
3.6085986745249e-005
11
429.137274507982
21
1852.84102208943
31
3.60859866550101e-005
  0
LINE
 8
GROUP0
10
429.686312613658
20
1852.29198398375
30
3.60859869257268e-005
11
429.447934679762
21
1852.60264415553
31
3.6085986745249e-005
  0
LINE
 8
GROUP0
10
429.836163247415
20
1851.93021255141
30
3.60859871513242e-005
11
429.686312613658
21
1852.29198398375
31
3.60859869257268e-005
  0
LINE
 8
GROUP0
10
429.887274507982
20
1851.54198398375
30
3.60859873769215e-005
11
429.836163247415
21
1851.93021255141
31
3.60859871513242e-005
  0
LINE
 8
GROUP0
10
429.836163247415
20
1851.1537554161
30
3.60859876927577e-005
11
429.887274507982
21
1851.54198398375
31
3.60859873769215e-005
  0
LINE
 8
GROUP0
10
429.686312613658
20
1850.79198398375
30
3.60859877378772e-005
11
429.836163247415
21
1851.1537554161
31
3.60859876927577e-005
  0
LINE
 8
GROUP0
10
429.447934679762
20
1850.48132381197
30
3.60859878732356e-005
11
429.686312613658
21
1850.79198398375
31
3.60859877378772e-005
  0
LINE
 8
GROUP0
10
429.137274507982
20
1850.24294587808
30
3.60859881439524e-005
11
429.447934679762
21
1850.48132381197
31
3.60859878732356e-005
  0
LINE
 8
GROUP0
10
428.775503075635
20
1850.09309524432
30
3.60859881439524e-005
11
429.137274507982
21
1850.24294587808
31
3.60859881439524e-005
  0
LINE
 8
GROUP0
10
428.387274507982
20
1850.04198398375
30
3.60859880537134e-005
11
428.775503075635
21
1850.09309524432
31
3.60859881439524e-005
  0
LINE
 8
GROUP0
10
427.999045940328
20
1850.09309524432
30
3.60859879634745e-005
11
428.387274507982
21
1850.04198398375
31
3.60859880537134e-005
  0
LINE
 8
GROUP0
10
427.637274507982
20
1850.24294587808
30
3.6085987918355e-005
11
427.999045940328
21
1850.09309524432
31
3.60859879634745e-005
  0
LINE
 8
GROUP0
10
427.326614336202
20
1850.48132381197
30
3.60859877829967e-005
11
427.637274507982
21
1850.24294587808
31
3.6085987918355e-005
  0
LINE
 8
GROUP0
10
427.088236402305
20
1850.79198398375
30
3.60859876025188e-005
11
427.326614336202
21
1850.48132381197
31
3.60859877829967e-005
  0
LINE
 8
GROUP0
10
426.938385768548
20
1851.1537554161
30
3.60859873769215e-005
11
427.088236402305
21
1850.79198398375
31
3.60859876025188e-005
  0
LINE
 8
GROUP0
10
426.887274507982
20
1851.54198398375
30
3.6085987331802e-005
11
426.938385768548
21
1851.1537554161
31
3.60859873769215e-005
  0
LINE
 8
GROUP0
10
426.938385768548
20
1851.93021255141
30
3.60859869708463e-005
11
426.887274507982
21
1851.54198398375
31
3.6085987331802e-005
  0
LINE
 8
GROUP0
10
429.137274507982
20
1884.84102208943
30
3.60859700961669e-005
11
428.775503075636
21
1884.99087272319
31
3.60859698705696e-005
  0
LINE
 8
GROUP0
10
429.447934679762
20
1884.60264415553
30
3.60859700961669e-005
11
429.137274507982
21
1884.84102208943
31
3.60859700961669e-005
  0
LINE
 8
GROUP0
10
429.686312613659
20
1884.29198398375
30
3.60859702766447e-005
11
429.447934679762
21
1884.60264415553
31
3.60859700961669e-005
  0
LINE
 8
GROUP0
10
429.836163247416
20
1883.93021255141
30
3.60859706376004e-005
11
429.686312613659
21
1884.29198398375
31
3.60859702766447e-005
  0
LINE
 8
GROUP0
10
429.887274507982
20
1883.54198398375
30
3.60859706827199e-005
11
429.836163247416
21
1883.93021255141
31
3.60859706376004e-005
  0
LINE
 8
GROUP0
10
429.836163247416
20
1883.1537554161
30
3.60859709083172e-005
11
429.887274507982
21
1883.54198398375
31
3.60859706827199e-005
  0
LINE
 8
GROUP0
10
429.686312613659
20
1882.79198398375
30
3.60859710887951e-005
11
429.836163247416
21
1883.1537554161
31
3.60859709083172e-005
  0
LINE
 8
GROUP0
10
429.447934679762
20
1882.48132381197
30
3.6085971179034e-005
11
429.686312613659
21
1882.79198398375
31
3.60859710887951e-005
  0
LINE
 8
GROUP0
10
429.137274507982
20
1882.24294587808
30
3.60859713143924e-005
11
429.447934679762
21
1882.48132381197
31
3.6085971179034e-005
  0
LINE
 8
GROUP0
10
428.775503075636
20
1882.09309524432
30
3.60859714046313e-005
11
429.137274507982
21
1882.24294587808
31
3.60859713143924e-005
  0
LINE
 8
GROUP0
10
428.387274507982
20
1882.04198398375
30
3.60859714046313e-005
11
428.775503075636
21
1882.09309524432
31
3.60859714046313e-005
  0
LINE
 8
GROUP0
10
427.999045940328
20
1882.09309524432
30
3.60859713143924e-005
11
428.387274507982
21
1882.04198398375
31
3.60859714046313e-005
  0
LINE
 8
GROUP0
10
427.637274507982
20
1882.24294587808
30
3.60859712241535e-005
11
427.999045940328
21
1882.09309524432
31
3.60859713143924e-005
  0
LINE
 8
GROUP0
10
427.326614336202
20
1882.48132381197
30
3.60859710887951e-005
11
427.637274507982
21
1882.24294587808
31
3.60859712241535e-005
  0
LINE
 8
GROUP0
10
427.088236402305
20
1882.79198398375
30
3.60859709083172e-005
11
427.326614336202
21
1882.48132381197
31
3.60859710887951e-005
  0
LINE
 8
GROUP0
10
426.938385768548
20
1883.1537554161
30
3.60859707278394e-005
11
427.088236402305
21
1882.79198398375
31
3.60859709083172e-005
  0
LINE
 8
GROUP0
10
426.887274507982
20
1883.54198398375
30
3.6085970502242e-005
11
426.938385768548
21
1883.1537554161
31
3.60859707278394e-005
  0
LINE
 8
GROUP0
10
426.938385768548
20
1883.93021255141
30
3.60859703217642e-005
11
426.887274507982
21
1883.54198398375
31
3.6085970502242e-005
  0
LINE
 8
GROUP0
10
427.088236402305
20
1884.29198398375
30
3.60859702766447e-005
11
426.938385768548
21
1883.93021255141
31
3.60859703217642e-005
  0
LINE
 8
GROUP0
10
427.326614336202
20
1884.60264415553
30
3.60859700059279e-005
11
427.088236402305
21
1884.29198398375
31
3.60859702766447e-005
  0
LINE
 8
GROUP0
10
427.637274507982
20
1884.84102208943
30
3.60859698705696e-005
11
427.326614336202
21
1884.60264415553
31
3.60859700059279e-005
  0
LINE
 8
GROUP0
10
427.999045940328
20
1884.99087272319
30
3.60859697803306e-005
11
427.637274507982
21
1884.84102208943
31
3.60859698705696e-005
  0
LINE
 8
GROUP0
10
428.387274507982
20
1885.04198398375
30
3.60859697803306e-005
11
427.999045940328
21
1884.99087272319
31
3.60859697803306e-005
  0
LINE
 8
GROUP0
10
428.775503075636
20
1884.99087272319
30
3.60859698705696e-005
11
428.387274507982
21
1885.04198398375
31
3.60859697803306e-005
  0
LINE
 8
GROUP0
10
397.447934679762
20
1884.60264415553
30
3.60859681109105e-005
11
397.137274507982
21
1884.84102208943
31
3.60859680206715e-005
  0
LINE
 8
GROUP0
10
397.686312613659
20
1884.29198398375
30
3.60859684267467e-005
11
397.447934679762
21
1884.60264415553
31
3.60859681109105e-005
  0
LINE
 8
GROUP0
10
397.836163247416
20
1883.93021255141
30
3.6085968652344e-005
11
397.686312613659
21
1884.29198398375
31
3.60859684267467e-005
  0
LINE
 8
GROUP0
10
397.887274507982
20
1883.54198398375
30
3.6085968742583e-005
11
397.836163247416
21
1883.93021255141
31
3.6085968652344e-005
  0
LINE
 8
GROUP0
10
397.836163247416
20
1883.1537554161
30
3.60859689230608e-005
11
397.887274507982
21
1883.54198398375
31
3.6085968742583e-005
  0
LINE
 8
GROUP0
10
397.686312613659
20
1882.79198398375
30
3.60859691035387e-005
11
397.836163247416
21
1883.1537554161
31
3.60859689230608e-005
  0
LINE
 8
GROUP0
10
397.447934679762
20
1882.48132381197
30
3.60859693742555e-005
11
397.686312613659
21
1882.79198398375
31
3.60859691035387e-005
  0
LINE
 8
GROUP0
10
397.137274507982
20
1882.24294587808
30
3.60859693742555e-005
11
397.447934679762
21
1882.48132381197
31
3.60859693742555e-005
  0
LINE
 8
GROUP0
10
396.775503075636
20
1882.09309524432
30
3.60859695096138e-005
11
397.137274507982
21
1882.24294587808
31
3.60859693742555e-005
  0
LINE
 8
GROUP0
10
396.387274507982
20
1882.04198398375
30
3.60859694193749e-005
11
396.775503075636
21
1882.09309524432
31
3.60859695096138e-005
  0
LINE
 8
GROUP0
10
395.999045940328
20
1882.09309524432
30
3.6085969329136e-005
11
396.387274507982
21
1882.04198398375
31
3.60859694193749e-005
  0
LINE
 8
GROUP0
10
395.637274507982
20
1882.24294587808
30
3.60859692840165e-005
11
395.999045940328
21
1882.09309524432
31
3.6085969329136e-005
  0
LINE
 8
GROUP0
10
395.326614336202
20
1882.48132381197
30
3.60859692840165e-005
11
395.637274507982
21
1882.24294587808
31
3.60859692840165e-005
  0
LINE
 8
GROUP0
10
395.088236402305
20
1882.79198398375
30
3.60859689681803e-005
11
395.326614336202
21
1882.48132381197
31
3.60859692840165e-005
  0
LINE
 8
GROUP0
10
394.938385768548
20
1883.1537554161
30
3.6085968742583e-005
11
395.088236402305
21
1882.79198398375
31
3.60859689681803e-005
  0
LINE
 8
GROUP0
10
394.887274507982
20
1883.54198398375
30
3.60859685621051e-005
11
394.938385768548
21
1883.1537554161
31
3.6085968742583e-005
  0
LINE
 8
GROUP0
10
394.938385768548
20
1883.93021255141
30
3.60859683365078e-005
11
394.887274507982
21
1883.54198398375
31
3.60859685621051e-005
  0
LINE
 8
GROUP0
10
395.088236402305
20
1884.29198398375
30
3.60859682913883e-005
11
394.938385768548
21
1883.93021255141
31
3.60859683365078e-005
  0
LINE
 8
GROUP0
10
395.326614336202
20
1884.60264415553
30
3.60859680206715e-005
11
395.088236402305
21
1884.29198398375
31
3.60859682913883e-005
  0
LINE
 8
GROUP0
10
395.637274507982
20
1884.84102208943
30
3.60859679304326e-005
11
395.326614336202
21
1884.60264415553
31
3.60859680206715e-005
  0
LINE
 8
GROUP0
10
395.999045940328
20
1884.99087272319
30
3.60859678401937e-005
11
395.637274507982
21
1884.84102208943
31
3.60859679304326e-005
  0
LINE
 8
GROUP0
10
396.387274507982
20
1885.04198398375
30
3.60859678401937e-005
11
395.999045940328
21
1884.99087272319
31
3.60859678401937e-005
  0
LINE
 8
GROUP0
10
396.775503075636
20
1884.99087272319
30
3.60859679304326e-005
11
396.387274507982
21
1885.04198398375
31
3.60859678401937e-005
  0
LINE
 8
GROUP0
10
397.137274507982
20
1884.84102208943
30
3.60859680206715e-005
11
396.775503075636
21
1884.99087272319
31
3.60859679304326e-005
  0
LINE
 8
GROUP0
10
397.447934679762
20
1852.60264415553
30
3.6085984805112e-005
11
397.137274507982
21
1852.84102208943
31
3.60859845343953e-005
  0
LINE
 8
GROUP0
10
397.686312613658
20
1852.29198398375
30
3.60859849855899e-005
11
397.447934679762
21
1852.60264415553
31
3.6085984805112e-005
  0
LINE
 8
GROUP0
10
397.836163247415
20
1851.93021255141
30
3.60859852111872e-005
11
397.686312613658
21
1852.29198398375
31
3.60859849855899e-005
  0
LINE
 8
GROUP0
10
397.887274507982
20
1851.54198398375
30
3.60859854367845e-005
11
397.836163247415
21
1851.93021255141
31
3.60859852111872e-005
  0
LINE
 8
GROUP0
10
397.836163247415
20
1851.1537554161
30
3.60859857526208e-005
11
397.887274507982
21
1851.54198398375
31
3.60859854367845e-005
  0
LINE
 8
GROUP0
10
397.686312613658
20
1850.79198398375
30
3.60859857977403e-005
11
397.836163247415
21
1851.1537554161
31
3.60859857526208e-005
  0
LINE
 8
GROUP0
10
397.447934679761
20
1850.48132381197
30
3.60859858879792e-005
11
397.686312613658
21
1850.79198398375
31
3.60859857977403e-005
  0
LINE
 8
GROUP0
10
397.137274507982
20
1850.24294587808
30
3.60859860233376e-005
11
397.447934679761
21
1850.48132381197
31
3.60859858879792e-005
  0
LINE
 8
GROUP0
10
396.775503075636
20
1850.09309524432
30
3.60859862489349e-005
11
397.137274507982
21
1850.24294587808
31
3.60859860233376e-005
  0
LINE
 8
GROUP0
10
396.387274507982
20
1850.04198398375
30
3.60859861135765e-005
11
396.775503075636
21
1850.09309524432
31
3.60859862489349e-005
  0
LINE
 8
GROUP0
10
395.999045940328
20
1850.09309524432
30
3.6085986158696e-005
11
396.387274507982
21
1850.04198398375
31
3.60859861135765e-005
  0
LINE
 8
GROUP0
10
395.637274507982
20
1850.24294587808
30
3.60859859330986e-005
11
395.999045940328
21
1850.09309524432
31
3.6085986158696e-005
  0
LINE
 8
GROUP0
10
395.326614336202
20
1850.48132381197
30
3.60859857977403e-005
11
395.637274507982
21
1850.24294587808
31
3.60859859330986e-005
  0
LINE
 8
GROUP0
10
395.088236402305
20
1850.79198398375
30
3.60859856172624e-005
11
395.326614336202
21
1850.48132381197
31
3.60859857977403e-005
  0
LINE
 8
GROUP0
10
394.938385768548
20
1851.1537554161
30
3.60859854367845e-005
11
395.088236402305
21
1850.79198398375
31
3.60859856172624e-005
  0
LINE
 8
GROUP0
10
394.887274507982
20
1851.54198398375
30
3.60859853465456e-005
11
394.938385768548
21
1851.1537554161
31
3.60859854367845e-005
  0
LINE
 8
GROUP0
10
394.938385768548
20
1851.93021255141
30
3.60859850307094e-005
11
394.887274507982
21
1851.54198398375
31
3.60859853465456e-005
  0
LINE
 8
GROUP0
10
395.088236402305
20
1852.29198398375
30
3.60859848502315e-005
11
394.938385768548
21
1851.93021255141
31
3.60859850307094e-005
  0
LINE
 8
GROUP0
10
395.326614336202
20
1852.60264415553
30
3.60859847148731e-005
11
395.088236402305
21
1852.29198398375
31
3.60859848502315e-005
  0
LINE
 8
GROUP0
10
395.637274507982
20
1852.84102208943
30
3.60859844441563e-005
11
395.326614336202
21
1852.60264415553
31
3.60859847148731e-005
  0
LINE
 8
GROUP0
10
395.999045940328
20
1852.99087272319
30
3.60859844892758e-005
11
395.637274507982
21
1852.84102208943
31
3.60859844441563e-005
  0
LINE
 8
GROUP0
10
396.387274507982
20
1853.04198398375
30
3.60859844892758e-005
11
395.999045940328
21
1852.99087272319
31
3.60859844892758e-005
  0
LINE
 8
GROUP0
10
396.775503075635
20
1852.99087272319
30
3.60859847148731e-005
11
396.387274507982
21
1853.04198398375
31
3.60859844892758e-005
  0
LINE
 8
GROUP0
10
397.137274507982
20
1852.84102208943
30
3.60859845343953e-005
11
396.775503075635
21
1852.99087272319
31
3.60859847148731e-005
  0
LINE
 8
GROUP0
10
299.387224021193
20
1902.6420920642
30
3.60859713143924e-005
11
300.387224021193
21
1901.6420920642
31
3.60859713143924e-005
  0
LINE
 8
GROUP0
10
295.387224021192
20
1902.6420846742
30
3.60859713143924e-005
11
299.387224021193
21
1902.6420920642
31
3.60859713143924e-005
  0
LINE
 8
GROUP0
10
295.353179885662
20
1884.28317596073
30
3.60859713143924e-005
11
295.387253581205
21
1884.54199506878
31
3.60859713143924e-005
  0
LINE
 8
GROUP0
10
295.25327990874
20
1884.04199482126
30
3.60859713143924e-005
11
295.353179885662
21
1884.28317596073
31
3.60859713143924e-005
  0
LINE
 8
GROUP0
10
295.094361668772
20
1883.83488774648
30
3.60859713143924e-005
11
295.25327990874
21
1884.04199482126
31
3.60859713143924e-005
  0
LINE
 8
GROUP0
10
294.887255181188
20
1883.67596874125
30
3.60859713143924e-005
11
295.094361668772
21
1883.83488774648
31
3.60859713143924e-005
  0
LINE
 8
GROUP0
10
294.646074410857
20
1883.57606787316
30
3.60859713143924e-005
11
294.887255181188
21
1883.67596874125
31
3.60859713143924e-005
  0
LINE
 8
GROUP0
10
294.387255428707
20
1883.54199322128
30
3.60859713143924e-005
11
294.646074410857
21
1883.57606787316
31
3.60859713143924e-005
  0
LINE
 8
GROUP0
10
294.128436320653
20
1883.57606691683
30
3.60859713143924e-005
11
294.387255428707
21
1883.54199322128
31
3.60859713143924e-005
  0
LINE
 8
GROUP0
10
293.88725518119
20
1883.67596689375
30
3.60859713143924e-005
11
294.128436320653
21
1883.57606691683
31
3.60859713143924e-005
  0
LINE
 8
GROUP0
10
293.680148106401
20
1883.83488513372
30
3.60859713143924e-005
11
293.88725518119
21
1883.67596689375
31
3.60859713143924e-005
  0
LINE
 8
GROUP0
10
293.521229101174
20
1884.0419916213
30
3.60859713143924e-005
11
293.680148106401
21
1883.83488513372
31
3.60859713143924e-005
  0
LINE
 8
GROUP0
10
293.421328233087
20
1884.28317239163
30
3.60859713143924e-005
11
293.521229101174
21
1884.0419916213
31
3.60859713143924e-005
  0
LINE
 8
GROUP0
10
293.387253581208
20
1884.54199137378
30
3.60859713143924e-005
11
293.421328233087
21
1884.28317239163
31
3.60859713143924e-005
  0
LINE
 8
GROUP0
10
289.387224021194
20
1902.6420735859
30
3.60859713143924e-005
11
288.387224021194
21
1901.64208282505
31
3.60859713143924e-005
  0
LINE
 8
GROUP0
10
288.387224021194
20
1901.64208282505
30
3.60859713143924e-005
11
288.387224021194
21
1900.6420920642
31
3.60859713143924e-005
  0
LINE
 8
GROUP0
10
299.387220543553
20
1852.54198398375
30
3.60859713595119e-005
11
289.387220458063
21
1862.54198398375
31
3.60859713595119e-005
  0
LINE
 8
GROUP0
10
299.387220543553
20
1836.54198398375
30
3.60859713595119e-005
11
299.387220543553
21
1852.54198398375
31
3.60859713595119e-005
  0
LINE
 8
GROUP0
10
303.387220556706
20
1832.54198398375
30
3.60859713595119e-005
11
299.387220543553
21
1836.54198398375
31
3.60859713595119e-005
  0
LINE
 8
GROUP0
10
521.387168916197
20
1832.54198398375
30
3.60859713595119e-005
11
525.387168916197
21
1836.54198398375
31
3.60859713595119e-005
  0
LINE
 8
GROUP0
10
525.387168916197
20
1836.54198398375
30
3.60859713595119e-005
11
525.387168916197
21
1852.54198398375
31
3.60859713595119e-005
  0
LINE
 8
GROUP0
10
535.387168916197
20
1862.54198398375
30
3.60859713595119e-005
11
525.387168916197
21
1852.54198398375
31
3.60859713595119e-005
  0
LINE
 8
GROUP0
10
536.387168916197
20
1901.6420920642
30
3.60859713143924e-005
11
536.387168916197
21
1900.6420920642
31
3.60859713143924e-005
  0
LINE
 8
GROUP0
10
535.387168916197
20
1902.6420920642
30
3.60859713143924e-005
11
536.387168916197
21
1901.6420920642
31
3.60859713143924e-005
  0
LINE
 8
GROUP0
10
531.353094742486
20
1884.28316493865
30
3.60859713143924e-005
11
531.387168916197
21
1884.54198398375
31
3.60859713143924e-005
  0
LINE
 8
GROUP0
10
531.253194319981
20
1884.04198398375
30
3.60859713143924e-005
11
531.353094742486
21
1884.28316493865
31
3.60859713143924e-005
  0
LINE
 8
GROUP0
10
531.094275697383
20
1883.83487720256
30
3.60859713143924e-005
11
531.253194319981
21
1884.04198398375
31
3.60859713143924e-005
  0
LINE
 8
GROUP0
10
530.887168916197
20
1883.67595857996
30
3.60859713143924e-005
11
531.094275697383
21
1883.83487720256
31
3.60859713143924e-005
  0
LINE
 8
GROUP0
10
530.645987961299
20
1883.57605815746
30
3.60859713143924e-005
11
530.887168916197
21
1883.67595857996
31
3.60859713143924e-005
  0
LINE
 8
GROUP0
10
530.387168916197
20
1883.54198398375
30
3.60859713143924e-005
11
530.645987961299
21
1883.57605815746
31
3.60859713143924e-005
  0
LINE
 8
GROUP0
10
530.128349871094
20
1883.57605815746
30
3.60859713143924e-005
11
530.387168916197
21
1883.54198398375
31
3.60859713143924e-005
  0
LINE
 8
GROUP0
10
529.887168916197
20
1883.67595857996
30
3.60859713143924e-005
11
530.128349871094
21
1883.57605815746
31
3.60859713143924e-005
  0
LINE
 8
GROUP0
10
529.68006213501
20
1883.83487720256
30
3.60859713143924e-005
11
529.887168916197
21
1883.67595857996
31
3.60859713143924e-005
  0
LINE
 8
GROUP0
10
529.521143512412
20
1884.04198398375
30
3.60859713143924e-005
11
529.68006213501
21
1883.83487720256
31
3.60859713143924e-005
  0
LINE
 8
GROUP0
10
529.421243089907
20
1884.28316493865
30
3.60859713143924e-005
11
529.521143512412
21
1884.04198398375
31
3.60859713143924e-005
  0
LINE
 8
GROUP0
10
529.387168916196
20
1884.54198398375
30
3.60859713143924e-005
11
529.421243089907
21
1884.28316493865
31
3.60859713143924e-005
  0
LINE
 8
GROUP0
10
525.387168916197
20
1902.6420920642
30
3.60859713143924e-005
11
529.387168916196
21
1902.6420920642
31
3.60859713143924e-005
  0
LINE
 8
GROUP0
10
524.387168916197
20
1901.6420920642
30
3.60859713143924e-005
11
524.387168916197
21
1900.6420920642
31
3.60859713143924e-005
  0
LINE
 8
GROUP0
10
525.387168916197
20
1884.54198398375
30
3.60859713143924e-005
11
525.387168916197
21
1900.6420920642
31
3.60859713143924e-005
  0
LINE
 8
GROUP0
10
525.370131829341
20
1884.4125744612
30
3.60859713143924e-005
11
525.387168916197
21
1884.54198398375
31
3.60859713143924e-005
  0
LINE
 8
GROUP0
10
525.353094742486
20
1884.28316493865
30
3.60859713143924e-005
11
525.370131829341
21
1884.4125744612
31
3.60859713143924e-005
  0
LINE
 8
GROUP0
10
525.253194319981
20
1884.04198398375
30
3.60859713143924e-005
11
525.353094742486
21
1884.28316493865
31
3.60859713143924e-005
  0
LINE
 8
GROUP0
10
525.094275697383
20
1883.83487720256
30
3.60859713143924e-005
11
525.253194319981
21
1884.04198398375
31
3.60859713143924e-005
  0
LINE
 8
GROUP0
10
524.887168916197
20
1883.67595857996
30
3.60859713143924e-005
11
525.094275697383
21
1883.83487720256
31
3.60859713143924e-005
  0
LINE
 8
GROUP0
10
524.645987961299
20
1883.57605815746
30
3.60859713143924e-005
11
524.887168916197
21
1883.67595857996
31
3.60859713143924e-005
  0
LINE
 8
GROUP0
10
524.387168916197
20
1883.54198398375
30
3.60859713143924e-005
11
524.645987961299
21
1883.57605815746
31
3.60859713143924e-005
  0
LINE
 8
GROUP0
10
524.128349871094
20
1883.57605815746
30
3.60859713143924e-005
11
524.387168916197
21
1883.54198398375
31
3.60859713143924e-005
  0
LINE
 8
GROUP0
10
523.887168916197
20
1883.67595857996
30
3.60859713143924e-005
11
524.128349871094
21
1883.57605815746
31
3.60859713143924e-005
  0
LINE
 8
GROUP0
10
523.68006213501
20
1883.83487720256
30
3.60859713143924e-005
11
523.887168916197
21
1883.67595857996
31
3.60859713143924e-005
  0
LINE
 8
GROUP0
10
523.521143512412
20
1884.04198398375
30
3.60859713143924e-005
11
523.68006213501
21
1883.83487720256
31
3.60859713143924e-005
  0
LINE
 8
GROUP0
10
523.421243089908
20
1884.28316493865
30
3.60859713143924e-005
11
523.521143512412
21
1884.04198398375
31
3.60859713143924e-005
  0
LINE
 8
GROUP0
10
523.387168916197
20
1884.54198398375
30
3.60859713143924e-005
11
523.421243089908
21
1884.28316493865
31
3.60859713143924e-005
  0
LINE
 8
GROUP0
10
523.387168916197
20
1896.54198441377
30
3.60859713143924e-005
11
523.387168916197
21
1884.54198398375
31
3.60859713143924e-005
  0
LINE
 8
GROUP0
10
437.387274507982
20
1896.54202139562
30
3.60859713143924e-005
11
523.387168916197
21
1896.54198441377
31
3.60859713143924e-005
  0
LINE
 8
GROUP0
10
437.387274507982
20
1899.54202139562
30
3.60859713143924e-005
11
437.387274507982
21
1896.54202139562
31
3.60859713143924e-005
  0
LINE
 8
GROUP0
10
436.387274507982
20
1900.54202139562
30
3.60859713143924e-005
11
437.387274507982
21
1899.54202139562
31
3.60859713143924e-005
  0
LINE
 8
GROUP0
10
388.387274507983
20
1900.54206234994
30
3.60859728935736e-005
11
436.387274507982
21
1900.54202139562
31
3.60859713143924e-005
  0
LINE
 8
GROUP0
10
388.387274507983
20
1900.54206234994
30
3.60859728935736e-005
11
387.387274507983
21
1899.54206234994
31
3.60859728935736e-005
  0
LINE
 8
GROUP0
10
387.387274507983
20
1899.54206234994
30
3.60859728935736e-005
11
387.387274507983
21
1896.54206234994
31
3.60859728935736e-005
  0
LINE
 8
GROUP0
10
301.387218309206
20
1896.54200314716
30
3.60859713235573e-005
11
387.387274507983
21
1896.54206234994
31
3.60859728935736e-005
  0
LINE
 8
GROUP0
10
301.387218309206
20
1896.54200314716
30
3.60859713235573e-005
11
301.387237906921
21
1884.54199506878
31
3.60859713143924e-005
  0
LINE
 8
GROUP0
10
301.353164211378
20
1884.28317596073
30
3.60859713143924e-005
11
301.387237906921
21
1884.54199506878
31
3.60859713143924e-005
  0
LINE
 8
GROUP0
10
301.253264234456
20
1884.04199482126
30
3.60859713143924e-005
11
301.353164211378
21
1884.28317596073
31
3.60859713143924e-005
  0
LINE
 8
GROUP0
10
301.094345994488
20
1883.83488774648
30
3.60859713143924e-005
11
301.253264234456
21
1884.04199482126
31
3.60859713143924e-005
  0
LINE
 8
GROUP0
10
300.887239506904
20
1883.67596874125
30
3.60859713143924e-005
11
301.094345994488
21
1883.83488774648
31
3.60859713143924e-005
  0
LINE
 8
GROUP0
10
300.646058736573
20
1883.57606787316
30
3.60859713143924e-005
11
300.887239506904
21
1883.67596874125
31
3.60859713143924e-005
  0
LINE
 8
GROUP0
10
300.387239754423
20
1883.54199322128
30
3.60859713143924e-005
11
300.646058736573
21
1883.57606787316
31
3.60859713143924e-005
  0
LINE
 8
GROUP0
10
300.128420646369
20
1883.57606691683
30
3.60859713143924e-005
11
300.387239754423
21
1883.54199322128
31
3.60859713143924e-005
  0
LINE
 8
GROUP0
10
299.887239506906
20
1883.67596689375
30
3.60859713143924e-005
11
300.128420646369
21
1883.57606691683
31
3.60859713143924e-005
  0
LINE
 8
GROUP0
10
299.680132432117
20
1883.83488513372
30
3.60859713143924e-005
11
299.887239506906
21
1883.67596689375
31
3.60859713143924e-005
  0
LINE
 8
GROUP0
10
299.52121342689
20
1884.0419916213
30
3.60859713143924e-005
11
299.680132432117
21
1883.83488513372
31
3.60859713143924e-005
  0
LINE
 8
GROUP0
10
299.421312558803
20
1884.28317239163
30
3.60859713143924e-005
11
299.52121342689
21
1884.0419916213
31
3.60859713143924e-005
  0
LINE
 8
GROUP0
10
299.404264803051
20
1884.41258554623
30
3.60859713143924e-005
11
299.421312558803
21
1884.28317239163
31
3.60859713143924e-005
  0
LINE
 8
GROUP0
10
299.387227716195
20
1884.54199506878
30
3.60859713143924e-005
11
299.404264803051
21
1884.41258554623
31
3.60859713143924e-005
  0
LINE
 8
GROUP0
10
299.387224021193
20
1900.6420920642
30
3.60859713143924e-005
11
299.387227716195
21
1884.54199506878
31
3.60859713143924e-005
  0
LINE
 8
GROUP0
10
299.387224021193
20
1900.6420920642
30
3.60859713143924e-005
11
300.387224021193
21
1900.6420920642
31
3.60859713143924e-005
  0
LINE
 8
GROUP0
10
300.387224021193
20
1901.6420920642
30
3.60859713143924e-005
11
300.387224021193
21
1900.6420920642
31
3.60859713143924e-005
  0
LINE
 8
GROUP0
10
485.387176260483
20
1840.54198398375
30
3.60859713595119e-005
11
515.387168916197
21
1840.54198398375
31
3.60859713143924e-005
  0
LINE
 8
GROUP0
10
437.387274508005
20
1836.54198398375
30
3.60859713143924e-005
11
437.387274508005
21
1840.54198398375
31
3.60859713595119e-005
  0
LINE
 8
GROUP0
10
387.387274508003
20
1840.54198398375
30
3.60859713595119e-005
11
437.387274508005
21
1840.54198398375
31
3.60859713595119e-005
  0
LINE
 8
GROUP0
10
339.387212981914
20
1836.54198398375
30
3.60859713143924e-005
11
339.387212981914
21
1840.54198398375
31
3.60859713595119e-005
  0
LINE
 8
GROUP0
10
309.3872203262
20
1840.54198398375
30
3.60859713143924e-005
11
339.387212981914
21
1840.54198398375
31
3.60859713595119e-005
  0
LINE
 8
GROUP0
10
387.387274508003
20
1836.54198398375
30
3.60859713143924e-005
11
387.387274508003
21
1840.54198398375
31
3.60859713595119e-005
  0
LINE
 8
GROUP0
10
535.387168916197
20
1900.6420920642
30
3.60859713143924e-005
11
535.387168916197
21
1862.54198398375
31
3.60859713595119e-005
  0
LINE
 8
GROUP0
10
289.387224021194
20
1902.6420735859
30
3.60859713143924e-005
11
293.387220326193
21
1902.64208097919
31
3.60859713143924e-005
  0
LINE
 8
GROUP0
10
309.3872203262
20
1836.54198398375
30
3.60859713143924e-005
11
339.387212981914
21
1836.54198398375
31
3.60859713143924e-005
  0
LINE
 8
GROUP0
10
525.387168916197
20
1900.6420920642
30
3.60859713143924e-005
11
524.387168916197
21
1900.6420920642
31
3.60859713143924e-005
  0
LINE
 8
GROUP0
10
515.387168916197
20
1840.54198398375
30
3.60859713143924e-005
11
515.387168916197
21
1836.54198398375
31
3.60859713143924e-005
  0
LINE
 8
GROUP0
10
485.387176260483
20
1836.54198398375
30
3.60859713143924e-005
11
485.387176260483
21
1840.54198398375
31
3.60859713595119e-005
  0
LINE
 8
GROUP0
10
485.387176260483
20
1836.54198398375
30
3.60859713143924e-005
11
515.387168916197
21
1836.54198398375
31
3.60859713143924e-005
  0
LINE
 8
GROUP0
10
387.387274508003
20
1836.54198398375
30
3.60859713143924e-005
11
437.387274508005
21
1836.54198398375
31
3.60859713143924e-005
  0
LINE
 8
GROUP0
10
529.387168916196
20
1902.6420920642
30
3.60859713143924e-005
11
529.387168916196
21
1884.54198398375
31
3.60859713143924e-005
  0
LINE
 8
GROUP0
10
531.387168916197
20
1884.54198398375
30
3.60859713143924e-005
11
531.387168916197
21
1902.6420920642
31
3.60859713143924e-005
  0
LINE
 8
GROUP0
10
531.387168916197
20
1902.6420920642
30
3.60859713143924e-005
11
535.387168916197
21
1902.6420920642
31
3.60859713143924e-005
  0
LINE
 8
GROUP0
10
525.387168916197
20
1902.6420920642
30
3.60859713143924e-005
11
524.387168916197
21
1901.6420920642
31
3.60859713143924e-005
  0
LINE
 8
GROUP0
10
289.387220332787
20
1900.64207358919
30
3.60859713143924e-005
11
288.387224021194
21
1900.6420920642
31
3.60859713143924e-005
  0
LINE
 8
GROUP0
10
295.387224021192
20
1902.6420846742
30
3.60859713143924e-005
11
295.387253581205
21
1884.54199506878
31
3.60859713143924e-005
  0
LINE
 8
GROUP0
10
535.387168916197
20
1900.6420920642
30
3.60859713143924e-005
11
536.387168916197
21
1900.6420920642
31
3.60859713143924e-005
  0
LINE
 8
GROUP0
10
293.387220326193
20
1902.64208097919
30
3.60859713143924e-005
11
293.387253581208
21
1884.54199137378
31
3.60859713143924e-005
  0
LINE
 8
GROUP0
10
289.387220332787
20
1900.64207358919
30
3.60859713143924e-005
11
289.387220458063
21
1862.54198398375
31
3.60859713595119e-005
  0
LINE
 8
GROUP0
10
309.3872203262
20
1840.54198398375
30
3.60859713143924e-005
11
309.3872203262
21
1836.54198398375
31
3.60859713143924e-005
  0
LINE
 8
GROUP0
10
303.387220556706
20
1832.54198398375
30
3.60859713595119e-005
11
521.387168916197
21
1832.54198398375
31
3.60859713595119e-005
  0
LINE
 8
GROUP0
10
315.533391025472
20
1876.14005518152
30
3.89137606095602e-005
11
318.131467236822
21
1877.64005518152
31
4.27019048760968e-005
  0
LINE
 8
GROUP0
10
318.131467236822
20
1877.64005518152
30
4.27019048760968e-005
11
320.729543448171
21
1876.14005518152
31
4.77473737465317e-005
  0
LINE
 8
GROUP0
10
320.729543448171
20
1876.14005518152
30
4.77473737465317e-005
11
320.729543448168
21
1873.14005518152
31
4.90046978992353e-005
  0
LINE
 8
GROUP0
10
320.729543448168
20
1873.14005518152
30
4.90046978992353e-005
11
318.131467236818
21
1871.64005518152
31
4.52165541741323e-005
  0
LINE
 8
GROUP0
10
318.131467236818
20
1871.64005518152
30
4.52165541741323e-005
11
315.53339102547
21
1873.14005518152
31
4.01710855744142e-005
  0
LINE
 8
GROUP0
10
315.53339102547
20
1873.14005518152
30
4.01710855744142e-005
11
315.533391025472
21
1876.14005518152
31
3.89137606095602e-005
  0
LINE
 8
GROUP0
10
336.023757791752
20
1883.2381319926
30
6.23573202286565e-005
11
338.621834003102
21
1884.7381319926
31
6.61454651268656e-005
  0
LINE
 8
GROUP0
10
338.621834003102
20
1884.7381319926
30
6.61454651268656e-005
11
341.219910214451
21
1883.2381319926
31
7.11909331851501e-005
  0
LINE
 8
GROUP0
10
341.219910214451
20
1883.2381319926
30
7.11909331851501e-005
11
341.219910214448
21
1880.2381319926
31
7.24482571573759e-005
  0
LINE
 8
GROUP0
10
341.219910214448
20
1880.2381319926
30
7.24482571573759e-005
11
338.621834003098
21
1878.7381319926
31
6.86601140639453e-005
  0
LINE
 8
GROUP0
10
338.621834003098
20
1878.7381319926
30
6.86601140639453e-005
11
336.02375779175
21
1880.2381319926
31
6.36146447423158e-005
  0
LINE
 8
GROUP0
10
336.02375779175
20
1880.2381319926
30
6.36146447423158e-005
11
336.023757791752
21
1883.2381319926
31
6.23573202286565e-005
  0
LINE
 8
GROUP0
10
311.435315852879
20
1869.04197956995
30
4.05873877962648e-005
11
314.033392064229
21
1870.54197956995
31
4.43755315213679e-005
  0
LINE
 8
GROUP0
10
314.033392064229
20
1870.54197956995
30
4.43755315213679e-005
11
316.631468275577
21
1869.04197956995
31
4.9421000030847e-005
  0
LINE
 8
GROUP0
10
316.631468275577
20
1869.04197956995
30
4.9421000030847e-005
11
316.631468275575
21
1866.04197956995
31
5.06783248603426e-005
  0
LINE
 8
GROUP0
10
316.631468275575
20
1866.04197956995
30
5.06783248603426e-005
11
314.033392064225
21
1864.54197956995
31
4.6890180593806e-005
  0
LINE
 8
GROUP0
10
314.033392064225
20
1864.54197956995
30
4.6890180593806e-005
11
311.435315852876
21
1866.04197956995
31
4.18447126257604e-005
  0
LINE
 8
GROUP0
10
311.435315852876
20
1866.04197956995
30
4.18447126257604e-005
11
311.435315852879
21
1869.04197956995
31
4.05873877962648e-005
  0
LINE
 8
GROUP0
10
331.92569587087
20
1876.14005518152
30
3.89137606095602e-005
11
334.523772082219
21
1877.64005518152
31
4.27019048760968e-005
  0
LINE
 8
GROUP0
10
334.523772082219
20
1877.64005518152
30
4.27019048760968e-005
11
337.121848293568
21
1876.14005518152
31
4.77473737465317e-005
  0
LINE
 8
GROUP0
10
337.121848293568
20
1876.14005518152
30
4.77473737465317e-005
11
337.121848293566
21
1873.14005518152
31
4.90046978992353e-005
  0
LINE
 8
GROUP0
10
337.121848293566
20
1873.14005518152
30
4.90046978992353e-005
11
334.523772082216
21
1871.64005518152
31
4.52165541741323e-005
  0
LINE
 8
GROUP0
10
334.523772082216
20
1871.64005518152
30
4.52165541741323e-005
11
331.925695870867
21
1873.14005518152
31
4.01710855744142e-005
  0
LINE
 8
GROUP0
10
331.925695870867
20
1873.14005518152
30
4.01710855744142e-005
11
331.92569587087
21
1876.14005518152
31
3.89137606095602e-005
  0
LINE
 8
GROUP0
10
328.925695870867
20
1873.14005518152
30
4.90046978992353e-005
11
326.327619659517
21
1871.64005518152
31
4.52165541741323e-005
  0
LINE
 8
GROUP0
10
326.327619659517
20
1871.64005518152
30
4.52165541741323e-005
11
323.729543448169
21
1873.14005518152
31
4.01710855744142e-005
  0
LINE
 8
GROUP0
10
323.729543448169
20
1873.14005518152
30
4.01710855744142e-005
11
323.729543448171
21
1876.14005518152
31
3.89137606095602e-005
  0
LINE
 8
GROUP0
10
323.729543448171
20
1876.14005518152
30
3.89137606095602e-005
11
326.327619659521
21
1877.64005518152
31
4.270190460538e-005
  0
LINE
 8
GROUP0
10
326.327619659521
20
1877.64005518152
30
4.270190460538e-005
11
328.925695870869
21
1876.14005518152
31
4.77473737465317e-005
  0
LINE
 8
GROUP0
10
328.925695870869
20
1876.14005518152
30
4.77473737465317e-005
11
328.925695870867
21
1873.14005518152
31
4.90046978992353e-005
  0
LINE
 8
GROUP0
10
346.817984348219
20
1870.54198398375
30
7.5331424954328e-005
11
349.416060559568
21
1869.04198398375
31
8.03768933735682e-005
  0
LINE
 8
GROUP0
10
349.416060559568
20
1869.04198398375
30
8.03768933735682e-005
11
349.416060559566
21
1866.04198398375
31
8.16342181579444e-005
  0
LINE
 8
GROUP0
10
349.416060559566
20
1866.04198398375
30
8.16342181579444e-005
11
346.817984348216
21
1864.54198398375
31
7.78460739816467e-005
  0
LINE
 8
GROUP0
10
346.817984348216
20
1864.54198398375
30
7.78460739816467e-005
11
344.219908136867
21
1866.04198398375
31
7.28006047502561e-005
  0
LINE
 8
GROUP0
10
344.219908136867
20
1866.04198398375
30
7.28006047502561e-005
11
344.21990813687
21
1869.04198398375
31
7.15432807780303e-005
  0
LINE
 8
GROUP0
10
344.21990813687
20
1869.04198398375
30
7.15432807780303e-005
11
346.817984348219
21
1870.54198398375
31
7.5331424954328e-005
  0
LINE
 8
GROUP0
10
349.416060559568
20
1883.23813640642
30
8.03768932382098e-005
11
349.416060559566
21
1880.23813640642
31
8.1634218022586e-005
  0
LINE
 8
GROUP0
10
349.416060559566
20
1880.23813640642
30
8.1634218022586e-005
11
346.817984348216
21
1878.73813640642
31
7.78460731243768e-005
  0
LINE
 8
GROUP0
10
346.817984348216
20
1878.73813640642
30
7.78460731243768e-005
11
344.219908136867
21
1880.23813640642
31
7.28006044344198e-005
  0
LINE
 8
GROUP0
10
344.219908136867
20
1880.23813640642
30
7.28006044344198e-005
11
344.21990813687
21
1883.23813640642
31
7.15432802817162e-005
  0
LINE
 8
GROUP0
10
344.21990813687
20
1883.23813640642
30
7.15432802817162e-005
11
346.81798434822
21
1884.73813640642
31
7.53314249994474e-005
  0
LINE
 8
GROUP0
10
346.81798434822
20
1884.73813640642
30
7.53314249994474e-005
11
349.416060559568
21
1883.23813640642
31
8.03768932382098e-005
  0
LINE
 8
GROUP0
10
340.121848293566
20
1873.14005518152
30
4.01710855744142e-005
11
340.121848293568
21
1876.14005518152
31
3.89137606095602e-005
  0
LINE
 8
GROUP0
10
340.121848293568
20
1876.14005518152
30
3.89137606095602e-005
11
342.719924504918
21
1877.64005518152
31
4.27019048760968e-005
  0
LINE
 8
GROUP0
10
342.719924504918
20
1877.64005518152
30
4.27019048760968e-005
11
345.318000716267
21
1876.14005518152
31
4.77473737465317e-005
  0
LINE
 8
GROUP0
10
345.318000716267
20
1876.14005518152
30
4.77473737465317e-005
11
345.318000716264
21
1873.14005518152
31
4.90046978992353e-005
  0
LINE
 8
GROUP0
10
345.318000716264
20
1873.14005518152
30
4.90046978992353e-005
11
342.719924504914
21
1871.64005518152
31
4.52165542192517e-005
  0
LINE
 8
GROUP0
10
342.719924504914
20
1871.64005518152
30
4.52165542192517e-005
11
340.121848293566
21
1873.14005518152
31
4.01710855744142e-005
  0
LINE
 8
GROUP0
10
314.033392064229
20
1884.73813199263
30
4.43755317018457e-005
11
316.631468275577
21
1883.23813199263
31
4.94210002113249e-005
  0
LINE
 8
GROUP0
10
316.631468275577
20
1883.23813199263
30
4.94210002113249e-005
11
316.631468275575
21
1880.23813199263
31
5.06783248152232e-005
  0
LINE
 8
GROUP0
10
316.631468275575
20
1880.23813199263
30
5.06783248152232e-005
11
314.033392064224
21
1878.73813199263
31
4.6890179917014e-005
  0
LINE
 8
GROUP0
10
314.033392064224
20
1878.73813199263
30
4.6890179917014e-005
11
311.435315852876
21
1880.23813199263
31
4.18447122196852e-005
  0
LINE
 8
GROUP0
10
311.435315852876
20
1880.23813199263
30
4.18447122196852e-005
11
311.435315852878
21
1883.23813199263
31
4.05873874353091e-005
  0
LINE
 8
GROUP0
10
311.435315852878
20
1883.23813199263
30
4.05873874353091e-005
11
314.033392064229
21
1884.73813199263
31
4.43755317018457e-005
  0
LINE
 8
GROUP0
10
322.229542409351
20
1884.73813199263
30
4.43755317018457e-005
11
324.827618620699
21
1883.23813199263
31
4.94210002113249e-005
  0
LINE
 8
GROUP0
10
324.827618620699
20
1883.23813199263
30
4.94210002113249e-005
11
324.827618620696
21
1880.23813199263
31
5.06783248152232e-005
  0
LINE
 8
GROUP0
10
324.827618620696
20
1880.23813199263
30
5.06783248152232e-005
11
322.229542409347
21
1878.73813199263
31
4.6890179917014e-005
  0
LINE
 8
GROUP0
10
322.229542409347
20
1878.73813199263
30
4.6890179917014e-005
11
319.631466197998
21
1880.23813199263
31
4.18447122196852e-005
  0
LINE
 8
GROUP0
10
319.631466197998
20
1880.23813199263
30
4.18447122196852e-005
11
319.631466198
21
1883.23813199263
31
4.05873873450702e-005
  0
LINE
 8
GROUP0
10
319.631466198
20
1883.23813199263
30
4.05873873450702e-005
11
322.229542409351
21
1884.73813199263
31
4.43755317018457e-005
  0
LINE
 8
GROUP0
10
333.023759869326
20
1880.2381319926
30
7.24482571573759e-005
11
330.425683657977
21
1878.7381319926
31
6.86601140639453e-005
  0
LINE
 8
GROUP0
10
330.425683657977
20
1878.7381319926
30
6.86601140639453e-005
11
327.827607446627
21
1880.2381319926
31
6.36146447423158e-005
  0
LINE
 8
GROUP0
10
327.827607446627
20
1880.2381319926
30
6.36146447423158e-005
11
327.827607446629
21
1883.2381319926
31
6.23573203188954e-005
  0
LINE
 8
GROUP0
10
327.827607446629
20
1883.2381319926
30
6.23573203188954e-005
11
330.42568365798
21
1884.7381319926
31
6.61454651268656e-005
  0
LINE
 8
GROUP0
10
330.42568365798
20
1884.7381319926
30
6.61454651268656e-005
11
333.023759869329
21
1883.2381319926
31
7.11909332753891e-005
  0
LINE
 8
GROUP0
10
333.023759869329
20
1883.2381319926
30
7.11909332753891e-005
11
333.023759869326
21
1880.2381319926
31
7.24482571573759e-005
  0
LINE
 8
GROUP0
10
316.631468275569
20
1854.84582714728
30
4.62592189137467e-005
11
316.631468275567
21
1851.84582714728
31
4.75165436078839e-005
  0
LINE
 8
GROUP0
10
316.631468275567
20
1851.84582714728
30
4.75165436078839e-005
11
314.033392064216
21
1850.34582714728
31
4.37283987999137e-005
  0
LINE
 8
GROUP0
10
314.033392064216
20
1850.34582714728
30
4.37283987999137e-005
11
311.435315852868
21
1851.84582714728
31
3.86829304709124e-005
  0
LINE
 8
GROUP0
10
311.435315852868
20
1851.84582714728
30
3.86829304709124e-005
11
311.435315852871
21
1854.84582714728
31
3.7425606047492e-005
  0
LINE
 8
GROUP0
10
311.435315852871
20
1854.84582714728
30
3.7425606047492e-005
11
314.033392064221
21
1856.34582714728
31
4.12137509457011e-005
  0
LINE
 8
GROUP0
10
314.033392064221
20
1856.34582714728
30
4.12137509457011e-005
11
316.631468275569
21
1854.84582714728
31
4.62592189137467e-005
  0
LINE
 8
GROUP0
10
389.298743345373
20
1873.14006400913
30
8.0312939060434e-005
11
389.298743345375
21
1876.14006400913
31
7.905561409558e-005
  0
LINE
 8
GROUP0
10
389.298743345375
20
1876.14006400913
30
7.905561409558e-005
11
391.896819556725
21
1877.64006400913
31
8.28437583621167e-005
  0
LINE
 8
GROUP0
10
391.896819556725
20
1877.64006400913
30
8.28437583621167e-005
11
394.494895768073
21
1876.14006400913
31
8.78892272325515e-005
  0
LINE
 8
GROUP0
10
394.494895768073
20
1876.14006400913
30
8.78892272325515e-005
11
394.494895768071
21
1873.14006400913
31
8.91465513852552e-005
  0
LINE
 8
GROUP0
10
394.494895768071
20
1873.14006400913
30
8.91465513852552e-005
11
391.896819556721
21
1871.64006400913
31
8.53584076601521e-005
  0
LINE
 8
GROUP0
10
391.896819556721
20
1871.64006400913
30
8.53584076601521e-005
11
389.298743345373
21
1873.14006400913
31
8.0312939060434e-005
  0
LINE
 8
GROUP0
10
385.200650765978
20
1869.04199281136
30
0.000111685134218931
11
387.798726977328
21
1870.54199281136
31
0.000115473278395228
  0
LINE
 8
GROUP0
10
387.798726977328
20
1870.54199281136
30
0.000115473278395228
11
390.396803188677
21
1869.04199281136
31
0.000120518746814469
  0
LINE
 8
GROUP0
10
390.396803188677
20
1869.04199281136
30
0.000120518746814469
11
390.396803188674
21
1866.04199281136
31
0.000121776071598845
  0
LINE
 8
GROUP0
10
390.396803188674
20
1866.04199281136
30
0.000121776071598845
11
387.798726977324
21
1864.54199281136
31
0.000117987927422547
  0
LINE
 8
GROUP0
10
387.798726977324
20
1864.54199281136
30
0.000117987927422547
11
385.200650765976
21
1866.04199281136
31
0.000112942458191156
  0
LINE
 8
GROUP0
10
385.200650765976
20
1866.04199281136
30
0.000112942458191156
11
385.200650765978
21
1869.04199281136
31
0.000111685134218931
  0
LINE
 8
GROUP0
10
372.906438499952
20
1858.94391158644
30
6.17497724370253e-005
11
372.906438499954
21
1861.94391158644
31
5.97562681953434e-005
  0
LINE
 8
GROUP0
10
372.906438499954
20
1861.94391158644
30
5.97562681953434e-005
11
375.504514711308
21
1863.44391158644
31
6.00675621747371e-005
  0
LINE
 8
GROUP0
10
375.504514711308
20
1863.44391158644
30
6.00675621747371e-005
11
378.10259092266
21
1861.94391158644
31
6.23723606665294e-005
  0
LINE
 8
GROUP0
10
378.10259092266
20
1861.94391158644
30
6.23723606665294e-005
11
378.102590922659
21
1858.94391158644
31
6.43658648179723e-005
  0
LINE
 8
GROUP0
10
378.102590922659
20
1858.94391158644
30
6.43658648179723e-005
11
375.504514711305
21
1857.44391158644
31
6.40545707483398e-005
  0
LINE
 8
GROUP0
10
375.504514711305
20
1857.44391158644
30
6.40545707483398e-005
11
372.906438499952
21
1858.94391158644
31
6.17497724370253e-005
  0
LINE
 8
GROUP0
10
333.023759869329
20
1869.04197956993
30
7.11909329595528e-005
11
333.023759869325
21
1866.04197956993
31
7.24482574732122e-005
  0
LINE
 8
GROUP0
10
333.023759869325
20
1866.04197956993
30
7.24482574732122e-005
11
330.425683657977
21
1864.54197956993
31
6.86601141993037e-005
  0
LINE
 8
GROUP0
10
330.425683657977
20
1864.54197956993
30
6.86601141993037e-005
11
327.827607446627
21
1866.04197956993
31
6.36146449679131e-005
  0
LINE
 8
GROUP0
10
327.827607446627
20
1866.04197956993
30
6.36146449679131e-005
11
327.82760744663
21
1869.04197956993
31
6.23573205444927e-005
  0
LINE
 8
GROUP0
10
327.82760744663
20
1869.04197956993
30
6.23573205444927e-005
11
330.42568365798
21
1870.54197956993
31
6.61454649012683e-005
  0
LINE
 8
GROUP0
10
330.42568365798
20
1870.54197956993
30
6.61454649012683e-005
11
333.023759869329
21
1869.04197956993
31
7.11909329595528e-005
  0
LINE
 8
GROUP0
10
346.817984348212
20
1856.34583156107
30
7.21696431604357e-005
11
349.41606055956
21
1854.84583156107
31
7.72151118503928e-005
  0
LINE
 8
GROUP0
10
349.41606055956
20
1854.84583156107
30
7.72151118503928e-005
11
349.416060559558
21
1851.84583156107
31
7.84724359128575e-005
  0
LINE
 8
GROUP0
10
349.416060559558
20
1851.84583156107
30
7.84724359128575e-005
11
346.817984348207
21
1850.34583156107
31
7.46842922779933e-005
  0
LINE
 8
GROUP0
10
346.817984348207
20
1850.34583156107
30
7.46842922779933e-005
11
344.21990813686
21
1851.84583156107
31
6.96388229563638e-005
  0
LINE
 8
GROUP0
10
344.21990813686
20
1851.84583156107
30
6.96388229563638e-005
11
344.219908136862
21
1854.84583156107
31
6.83814994353327e-005
  0
LINE
 8
GROUP0
10
344.219908136862
20
1854.84583156107
30
6.83814994353327e-005
11
346.817984348212
21
1856.34583156107
31
7.21696431604357e-005
  0
LINE
 8
GROUP0
10
389.29874334534
20
1861.94391158643
30
4.01418534409004e-005
11
391.896819556694
21
1863.44391158643
31
4.04531473300551e-005
  0
LINE
 8
GROUP0
10
391.896819556694
20
1863.44391158643
30
4.04531473300551e-005
11
394.494895768045
21
1861.94391158643
31
4.27579460925642e-005
  0
LINE
 8
GROUP0
10
394.494895768045
20
1861.94391158643
30
4.27579460925642e-005
11
394.494895768043
21
1858.94391158643
31
4.47514499732904e-005
  0
LINE
 8
GROUP0
10
394.494895768043
20
1858.94391158643
30
4.47514499732904e-005
11
391.89681955669
21
1857.44391158643
31
4.44401562646135e-005
  0
LINE
 8
GROUP0
10
391.89681955669
20
1857.44391158643
30
4.44401562646135e-005
11
389.298743345338
21
1858.94391158643
31
4.21353582240158e-005
  0
LINE
 8
GROUP0
10
389.298743345338
20
1858.94391158643
30
4.21353582240158e-005
11
389.29874334534
21
1861.94391158643
31
4.01418534409004e-005
  0
LINE
 8
GROUP0
10
360.612208827109
20
1869.04198839757
30
8.07292412822846e-005
11
363.210285038459
21
1870.54198839757
31
8.45173850073877e-005
  0
LINE
 8
GROUP0
10
363.210285038459
20
1870.54198839757
30
8.45173850073877e-005
11
365.808361249807
21
1869.04198839757
31
8.95628534266279e-005
  0
LINE
 8
GROUP0
10
365.808361249807
20
1869.04198839757
30
8.95628534266279e-005
11
365.808361249805
21
1866.04198839757
31
9.0820178301243e-005
  0
LINE
 8
GROUP0
10
365.808361249805
20
1866.04198839757
30
9.0820178301243e-005
11
363.210285038455
21
1864.54198839757
31
8.70320339444675e-005
  0
LINE
 8
GROUP0
10
363.210285038455
20
1864.54198839757
30
8.70320339444675e-005
11
360.612208827107
21
1866.04198839757
31
8.19865660666608e-005
  0
LINE
 8
GROUP0
10
360.612208827107
20
1866.04198839757
30
8.19865660666608e-005
11
360.612208827109
21
1869.04198839757
31
8.07292412822846e-005
  0
LINE
 8
GROUP0
10
350.916076927613
20
1871.64005518152
30
4.52165542192517e-005
11
348.318000716265
21
1873.14005518152
31
4.01710856195336e-005
  0
LINE
 8
GROUP0
10
348.318000716265
20
1873.14005518152
30
4.01710856195336e-005
11
348.318000716267
21
1876.14005518152
31
3.89137606095602e-005
  0
LINE
 8
GROUP0
10
348.318000716267
20
1876.14005518152
30
3.89137606095602e-005
11
350.916076927617
21
1877.64005518152
31
4.27019048760968e-005
  0
LINE
 8
GROUP0
10
350.916076927617
20
1877.64005518152
30
4.27019048760968e-005
11
353.514153138965
21
1876.14005518152
31
4.77473737465317e-005
  0
LINE
 8
GROUP0
10
353.514153138965
20
1876.14005518152
30
4.77473737465317e-005
11
353.514153138963
21
1873.14005518152
31
4.90046979443548e-005
  0
LINE
 8
GROUP0
10
353.514153138963
20
1873.14005518152
30
4.90046979443548e-005
11
350.916076927613
21
1871.64005518152
31
4.52165542192517e-005
  0
LINE
 8
GROUP0
10
328.925695870859
20
1861.94390275883
30
3.203771464797e-005
11
328.925695870857
21
1858.94390275883
31
3.40312191603687e-005
  0
LINE
 8
GROUP0
10
328.925695870857
20
1858.94390275883
30
3.40312191603687e-005
11
326.327619659504
21
1857.44390275884
31
3.3719925180975e-005
  0
LINE
 8
GROUP0
10
326.327619659504
20
1857.44390275884
30
3.3719925180975e-005
11
323.729543448152
21
1858.94390275884
31
3.14151267794216e-005
  0
LINE
 8
GROUP0
10
323.729543448152
20
1858.94390275884
30
3.14151267794216e-005
11
323.729543448154
21
1861.94390275884
31
2.94216219060672e-005
  0
LINE
 8
GROUP0
10
323.729543448154
20
1861.94390275884
30
2.94216219060672e-005
11
326.327619659508
21
1863.44390275883
31
2.97329160659388e-005
  0
LINE
 8
GROUP0
10
326.327619659508
20
1863.44390275883
30
2.97329160659388e-005
11
328.925695870859
21
1861.94390275883
31
3.203771464797e-005
  0
LINE
 8
GROUP0
10
353.514153138935
20
1858.94390275882
30
4.60959653239001e-006
11
350.916076927582
21
1857.44390275882
31
4.29830282371313e-006
  0
LINE
 8
GROUP0
10
350.916076927582
20
1857.44390275882
30
4.29830282371313e-006
11
348.31800071623
21
1858.94390275882
31
1.99350478311544e-006
  0
LINE
 8
GROUP0
10
348.31800071623
20
1858.94390275882
30
1.99350478311544e-006
11
348.318000716232
21
1861.94390275882
31
0.0
  0
LINE
 8
GROUP0
10
348.318000716232
20
1861.94390275882
30
0.0
11
350.916076927585
21
1863.44390275882
31
3.1129388915474e-007
  0
LINE
 8
GROUP0
10
350.916076927585
20
1863.44390275882
30
3.1129388915474e-007
11
353.514153138937
21
1861.94390275882
31
2.61609265166385e-006
  0
LINE
 8
GROUP0
10
353.514153138937
20
1861.94390275882
30
2.61609265166385e-006
11
353.514153138935
21
1858.94390275882
31
4.60959653239001e-006
  0
LINE
 8
GROUP0
10
333.02375986932
20
1854.84582714725
30
6.8029151797333e-005
11
333.023759869318
21
1851.84582714725
31
6.92864763109924e-005
  0
LINE
 8
GROUP0
10
333.023759869318
20
1851.84582714725
30
6.92864763109924e-005
11
330.425683657968
21
1850.34582714725
31
6.54983316835001e-005
  0
LINE
 8
GROUP0
10
330.425683657968
20
1850.34582714725
30
6.54983316835001e-005
11
327.827607446619
21
1851.84582714725
31
6.04528635349766e-005
  0
LINE
 8
GROUP0
10
327.827607446619
20
1851.84582714725
30
6.04528635349766e-005
11
327.827607446622
21
1854.84582714725
31
5.91955386603615e-005
  0
LINE
 8
GROUP0
10
327.827607446622
20
1854.84582714725
30
5.91955386603615e-005
11
330.425683657972
21
1856.34582714725
31
6.29836833780928e-005
  0
LINE
 8
GROUP0
10
330.425683657972
20
1856.34582714725
30
6.29836833780928e-005
11
333.02375986932
21
1854.84582714725
31
6.8029151797333e-005
  0
LINE
 8
GROUP0
10
386.298743345373
20
1873.14006400913
30
8.91465513852552e-005
11
383.700667134022
21
1871.64006400913
31
8.53584076601521e-005
  0
LINE
 8
GROUP0
10
383.700667134022
20
1871.64006400913
30
8.53584076601521e-005
11
381.102590922674
21
1873.14006400913
31
8.0312939060434e-005
  0
LINE
 8
GROUP0
10
381.102590922674
20
1873.14006400913
30
8.0312939060434e-005
11
381.102590922677
21
1876.14006400913
31
7.905561409558e-005
  0
LINE
 8
GROUP0
10
381.102590922677
20
1876.14006400913
30
7.905561409558e-005
11
383.700667134027
21
1877.64006400913
31
8.28437583621167e-005
  0
LINE
 8
GROUP0
10
383.700667134027
20
1877.64006400913
30
8.28437583621167e-005
11
386.298743345375
21
1876.14006400913
31
8.78892272325515e-005
  0
LINE
 8
GROUP0
10
386.298743345375
20
1876.14006400913
30
8.78892272325515e-005
11
386.298743345373
21
1873.14006400913
31
8.91465513852552e-005
  0
LINE
 8
GROUP0
10
377.00450042086
20
1869.04198839754
30
0.00010249917425611
11
379.60257663221
21
1870.54198839754
31
0.000106287318342169
  0
LINE
 8
GROUP0
10
379.60257663221
20
1870.54198839754
30
0.000106287318342169
11
382.200652843559
21
1869.04198839754
31
0.000111332786310214
  0
LINE
 8
GROUP0
10
382.200652843559
20
1869.04198839754
30
0.000111332786310214
11
382.200652843557
21
1866.04198839754
31
0.000112590110914113
  0
LINE
 8
GROUP0
10
382.200652843557
20
1866.04198839754
30
0.000112590110914113
11
379.602576632207
21
1864.54198839754
31
0.000108801967640204
  0
LINE
 8
GROUP0
10
379.602576632207
20
1864.54198839754
30
0.000108801967640204
11
377.004500420858
21
1866.04198839754
31
0.000103756498408814
  0
LINE
 8
GROUP0
10
377.004500420858
20
1866.04198839754
30
0.000103756498408814
11
377.00450042086
21
1869.04198839754
31
0.00010249917425611
  0
LINE
 8
GROUP0
10
386.298743345352
20
1858.94391158644
30
5.45586579370649e-005
11
383.700667133997
21
1857.44391158644
31
5.42473632357598e-005
  0
LINE
 8
GROUP0
10
383.700667133997
20
1857.44391158644
30
5.42473632357598e-005
11
381.102590922645
21
1858.94391158644
31
5.19425654658789e-005
  0
LINE
 8
GROUP0
10
381.102590922645
20
1858.94391158644
30
5.19425654658789e-005
11
381.102590922648
21
1861.94391158644
31
4.99490605925246e-005
  0
LINE
 8
GROUP0
10
381.102590922648
20
1861.94391158644
30
4.99490605925246e-005
11
383.700667134001
21
1863.44391158644
31
5.02603545719182e-005
  0
LINE
 8
GROUP0
10
383.700667134001
20
1863.44391158644
30
5.02603545719182e-005
11
386.298743345353
21
1861.94391158643
31
5.25651532441884e-005
  0
LINE
 8
GROUP0
10
386.298743345353
20
1861.94391158643
30
5.25651532441884e-005
11
386.298743345352
21
1858.94391158644
31
5.45586579370649e-005
  0
LINE
 8
GROUP0
10
357.612210904683
20
1866.04198839757
30
9.0820178301243e-005
11
355.014134693333
21
1864.54198839757
31
8.70320340347064e-005
  0
LINE
 8
GROUP0
10
355.014134693333
20
1864.54198839757
30
8.70320340347064e-005
11
352.416058481985
21
1866.04198839757
31
8.19865660666608e-005
  0
LINE
 8
GROUP0
10
352.416058481985
20
1866.04198839757
30
8.19865660666608e-005
11
352.416058481987
21
1869.04198839757
31
8.07292412822846e-005
  0
LINE
 8
GROUP0
10
352.416058481987
20
1869.04198839757
30
8.07292412822846e-005
11
355.014134693337
21
1870.54198839757
31
8.45173850073877e-005
  0
LINE
 8
GROUP0
10
355.014134693337
20
1870.54198839757
30
8.45173850073877e-005
11
357.612210904685
21
1869.04198839757
31
8.95628535168669e-005
  0
LINE
 8
GROUP0
10
357.612210904685
20
1869.04198839757
30
8.95628535168669e-005
11
357.612210904683
21
1866.04198839757
31
9.0820178301243e-005
  0
LINE
 8
GROUP0
10
363.210285038459
20
1884.73814082024
30
8.45173851427461e-005
11
365.808361249808
21
1883.23814082024
31
8.95628536522253e-005
  0
LINE
 8
GROUP0
10
365.808361249808
20
1883.23814082024
30
8.95628536522253e-005
11
365.808361249805
21
1880.23814082024
31
9.08201782561235e-005
  0
LINE
 8
GROUP0
10
365.808361249805
20
1880.23814082024
30
9.08201782561235e-005
11
363.210285038455
21
1878.73814082024
31
8.70320333579144e-005
  0
LINE
 8
GROUP0
10
363.210285038455
20
1878.73814082024
30
8.70320333579144e-005
11
360.612208827107
21
1880.23814082024
31
8.19865656605856e-005
  0
LINE
 8
GROUP0
10
360.612208827107
20
1880.23814082024
30
8.19865656605856e-005
11
360.612208827108
21
1883.23814082024
31
8.07292407859705e-005
  0
LINE
 8
GROUP0
10
360.612208827108
20
1883.23814082024
30
8.07292407859705e-005
11
363.210285038459
21
1884.73814082024
31
8.45173851427461e-005
  0
LINE
 8
GROUP0
10
324.827618620691
20
1854.84582714728
30
4.62592188235078e-005
11
324.827618620688
21
1851.84582714728
31
4.75165436981229e-005
  0
LINE
 8
GROUP0
10
324.827618620688
20
1851.84582714728
30
4.75165436981229e-005
11
322.229542409339
21
1850.34582714728
31
4.37283987999137e-005
  0
LINE
 8
GROUP0
10
322.229542409339
20
1850.34582714728
30
4.37283987999137e-005
11
319.631466197991
21
1851.84582714728
31
3.86829304709124e-005
  0
LINE
 8
GROUP0
10
319.631466197991
20
1851.84582714728
30
3.86829304709124e-005
11
319.631466197993
21
1854.84582714728
31
3.74256059572531e-005
  0
LINE
 8
GROUP0
10
319.631466197993
20
1854.84582714728
30
3.74256059572531e-005
11
322.229542409343
21
1856.34582714728
31
4.12137502237897e-005
  0
LINE
 8
GROUP0
10
322.229542409343
20
1856.34582714728
30
4.12137502237897e-005
11
324.827618620691
21
1854.84582714728
31
4.62592188235078e-005
  0
LINE
 8
GROUP0
10
338.621834003102
20
1870.54197956993
30
6.61454649012683e-005
11
341.219910214451
21
1869.04197956993
31
7.11909328693139e-005
  0
LINE
 8
GROUP0
10
341.219910214451
20
1869.04197956993
30
7.11909328693139e-005
11
341.219910214448
21
1866.04197956993
31
7.24482574732122e-005
  0
LINE
 8
GROUP0
10
341.219910214448
20
1866.04197956993
30
7.24482574732122e-005
11
338.621834003098
21
1864.54197956993
31
6.86601141993037e-005
  0
LINE
 8
GROUP0
10
338.621834003098
20
1864.54197956993
30
6.86601141993037e-005
11
336.02375779175
21
1866.04197956993
31
6.36146449679131e-005
  0
LINE
 8
GROUP0
10
336.02375779175
20
1866.04197956993
30
6.36146449679131e-005
11
336.023757791752
21
1869.04197956993
31
6.23573208152095e-005
  0
LINE
 8
GROUP0
10
336.023757791752
20
1869.04197956993
30
6.23573208152095e-005
11
338.621834003102
21
1870.54197956993
31
6.61454649012683e-005
  0
LINE
 8
GROUP0
10
374.004502498435
20
1880.23814082022
30
0.000112590110598276
11
371.406426287085
21
1878.73814082022
31
0.000108801967504846
  0
LINE
 8
GROUP0
10
371.406426287085
20
1878.73814082022
30
0.000108801967504846
11
368.808350075736
21
1880.23814082022
31
0.000103756498183216
  0
LINE
 8
GROUP0
10
368.808350075736
20
1880.23814082022
30
0.000103756498183216
11
368.808350075737
21
1883.23814082021
31
0.000102499173759796
  0
LINE
 8
GROUP0
10
368.808350075737
20
1883.23814082021
30
0.000102499173759796
11
371.406426287088
21
1884.73814082021
31
0.000106287318567766
  0
LINE
 8
GROUP0
10
371.406426287088
20
1884.73814082021
30
0.000106287318567766
11
374.004502498437
21
1883.23814082021
31
0.000111332786716289
  0
LINE
 8
GROUP0
10
374.004502498437
20
1883.23814082021
30
0.000111332786716289
11
374.004502498435
21
1880.23814082022
31
0.000112590110598276
  0
LINE
 8
GROUP0
10
356.514133654581
20
1876.14006400913
30
7.90556140504606e-005
11
359.11220986593
21
1877.64006400913
31
8.28437583169972e-005
  0
LINE
 8
GROUP0
10
359.11220986593
20
1877.64006400913
30
8.28437583169972e-005
11
361.710286077279
21
1876.14006400913
31
8.78892271874321e-005
  0
LINE
 8
GROUP0
10
361.710286077279
20
1876.14006400913
30
8.78892271874321e-005
11
361.710286077276
21
1873.14006400913
31
8.91465513852552e-005
  0
LINE
 8
GROUP0
10
361.710286077276
20
1873.14006400913
30
8.91465513852552e-005
11
359.112209865927
21
1871.64006400913
31
8.53584076601521e-005
  0
LINE
 8
GROUP0
10
359.112209865927
20
1871.64006400913
30
8.53584076601521e-005
11
356.514133654578
21
1873.14006400913
31
8.0312939060434e-005
  0
LINE
 8
GROUP0
10
356.514133654578
20
1873.14006400913
30
8.0312939060434e-005
11
356.514133654581
21
1876.14006400913
31
7.90556140504606e-005
  0
LINE
 8
GROUP0
10
375.504514711327
20
1877.64006400913
30
8.28437583169972e-005
11
378.102590922676
21
1876.14006400913
31
8.78892272325515e-005
  0
LINE
 8
GROUP0
10
378.102590922676
20
1876.14006400913
30
8.78892272325515e-005
11
378.102590922674
21
1873.14006400913
31
8.91465513852552e-005
  0
LINE
 8
GROUP0
10
378.102590922674
20
1873.14006400913
30
8.91465513852552e-005
11
375.504514711324
21
1871.64006400913
31
8.53584076601521e-005
  0
LINE
 8
GROUP0
10
375.504514711324
20
1871.64006400913
30
8.53584076601521e-005
11
372.906438499975
21
1873.14006400913
31
8.0312939060434e-005
  0
LINE
 8
GROUP0
10
372.906438499975
20
1873.14006400913
30
8.0312939060434e-005
11
372.906438499978
21
1876.14006400913
31
7.905561409558e-005
  0
LINE
 8
GROUP0
10
372.906438499978
20
1876.14006400913
30
7.905561409558e-005
11
375.504514711327
21
1877.64006400913
31
8.28437583169972e-005
  0
LINE
 8
GROUP0
10
352.416058481987
20
1883.23814082024
30
8.07292408762095e-005
11
355.014134693337
21
1884.73814082024
31
8.45173851427461e-005
  0
LINE
 8
GROUP0
10
355.014134693337
20
1884.73814082024
30
8.45173851427461e-005
11
357.612210904685
21
1883.23814082024
31
8.95628536522253e-005
  0
LINE
 8
GROUP0
10
357.612210904685
20
1883.23814082024
30
8.95628536522253e-005
11
357.612210904683
21
1880.23814082024
31
9.08201782561235e-005
  0
LINE
 8
GROUP0
10
357.612210904683
20
1880.23814082024
30
9.08201782561235e-005
11
355.014134693333
21
1878.73814082024
31
8.70320333579144e-005
  0
LINE
 8
GROUP0
10
355.014134693333
20
1878.73814082024
30
8.70320333579144e-005
11
352.416058481985
21
1880.23814082024
31
8.19865656605856e-005
  0
LINE
 8
GROUP0
10
352.416058481985
20
1880.23814082024
30
8.19865656605856e-005
11
352.416058481987
21
1883.23814082024
31
8.07292408762095e-005
  0
LINE
 8
GROUP0
10
387.798726977328
20
1884.73814523403
30
0.000115473278440348
11
390.396803188677
21
1883.23814523403
31
0.00012051874667911
  0
LINE
 8
GROUP0
10
390.396803188677
20
1883.23814523403
30
0.00012051874667911
11
390.396803188675
21
1880.23814523403
31
0.000121776071463486
  0
LINE
 8
GROUP0
10
390.396803188675
20
1880.23814523403
30
0.000121776071463486
11
387.798726977324
21
1878.73814523403
31
0.000117987926610397
  0
LINE
 8
GROUP0
10
387.798726977324
20
1878.73814523403
30
0.000117987926610397
11
385.200650765976
21
1880.23814523403
31
0.00011294245787532
  0
LINE
 8
GROUP0
10
385.200650765976
20
1880.23814523403
30
0.00011294245787532
11
385.200650765978
21
1883.23814523403
31
0.000111685133722617
  0
LINE
 8
GROUP0
10
385.200650765978
20
1883.23814523403
30
0.000111685133722617
11
387.798726977328
21
1884.73814523403
31
0.000115473278440348
  0
LINE
 8
GROUP0
10
364.710286077279
20
1876.14006400913
30
7.90556140504606e-005
11
367.308362288629
21
1877.64006400913
31
8.28437580462804e-005
  0
LINE
 8
GROUP0
10
367.308362288629
20
1877.64006400913
30
8.28437580462804e-005
11
369.906438499978
21
1876.14006400913
31
8.78892272325515e-005
  0
LINE
 8
GROUP0
10
369.906438499978
20
1876.14006400913
30
8.78892272325515e-005
11
369.906438499976
21
1873.14006400913
31
8.91465513852552e-005
  0
LINE
 8
GROUP0
10
369.906438499976
20
1873.14006400913
30
8.91465513852552e-005
11
367.308362288625
21
1871.64006400913
31
8.53584076601521e-005
  0
LINE
 8
GROUP0
10
367.308362288625
20
1871.64006400913
30
8.53584076601521e-005
11
364.710286077277
21
1873.14006400913
31
8.0312939060434e-005
  0
LINE
 8
GROUP0
10
364.710286077277
20
1873.14006400913
30
8.0312939060434e-005
11
364.710286077279
21
1876.14006400913
31
7.90556140504606e-005
  0
LINE
 8
GROUP0
10
320.729543448166
20
1861.94390275884
30
4.18449218898331e-005
11
320.729543448164
21
1858.94390275884
31
4.38384264924707e-005
  0
LINE
 8
GROUP0
10
320.729543448164
20
1858.94390275884
30
4.38384264924707e-005
11
318.13146723681
21
1857.44390275884
31
4.35271324228381e-005
  0
LINE
 8
GROUP0
10
318.13146723681
20
1857.44390275884
30
4.35271324228381e-005
11
315.533391025459
21
1858.94390275884
31
4.12223345627183e-005
  0
LINE
 8
GROUP0
10
315.533391025459
20
1858.94390275884
30
4.12223345627183e-005
11
315.533391025461
21
1861.94390275884
31
3.92288297796028e-005
  0
LINE
 8
GROUP0
10
315.533391025461
20
1861.94390275884
30
3.92288297796028e-005
11
318.131467236815
21
1863.44390275884
31
3.95401232175629e-005
  0
LINE
 8
GROUP0
10
318.131467236815
20
1863.44390275884
30
3.95401232175629e-005
11
320.729543448166
21
1861.94390275884
31
4.18449218898331e-005
  0
LINE
 8
GROUP0
10
379.602576632206
20
1878.73814082022
30
0.000108801967504846
11
377.004500420858
21
1880.23814082022
31
0.000103756498183216
  0
LINE
 8
GROUP0
10
377.004500420858
20
1880.23814082022
30
0.000103756498183216
11
377.00450042086
21
1883.23814082021
31
0.000102499173669557
  0
LINE
 8
GROUP0
10
377.00450042086
20
1883.23814082021
30
0.000102499173669557
11
379.60257663221
21
1884.73814082021
31
0.000106287318567766
  0
LINE
 8
GROUP0
10
379.60257663221
20
1884.73814082021
30
0.000106287318567766
11
382.200652843559
21
1883.23814082021
31
0.000111332786626051
  0
LINE
 8
GROUP0
10
382.200652843559
20
1883.23814082021
30
0.000111332786626051
11
382.200652843557
21
1880.23814082022
31
0.000112590110598276
  0
LINE
 8
GROUP0
10
382.200652843557
20
1880.23814082022
30
0.000112590110598276
11
379.602576632206
21
1878.73814082022
31
0.000108801967504846
  0
LINE
 8
GROUP0
10
371.406426287085
20
1864.54198839754
30
0.000108801967640204
11
368.808350075736
21
1866.04198839754
31
0.000103756498408814
  0
LINE
 8
GROUP0
10
368.808350075736
20
1866.04198839754
30
0.000103756498408814
11
368.808350075738
21
1869.04198839754
31
0.000102499173985393
  0
LINE
 8
GROUP0
10
368.808350075738
20
1869.04198839754
30
0.000102499173985393
11
371.406426287088
21
1870.54198839754
31
0.000106287318342169
  0
LINE
 8
GROUP0
10
371.406426287088
20
1870.54198839754
30
0.000106287318342169
11
374.004502498437
21
1869.04198839754
31
0.000111332786400453
  0
LINE
 8
GROUP0
10
374.004502498437
20
1869.04198839754
30
0.000111332786400453
11
374.004502498434
21
1866.04198839754
31
0.000112590110914113
  0
LINE
 8
GROUP0
10
374.004502498434
20
1866.04198839754
30
0.000112590110914113
11
371.406426287085
21
1864.54198839754
31
0.000108801967640204
  0
LINE
 8
GROUP0
10
345.318000716243
20
1858.94390275882
30
1.44168044961646e-005
11
342.719924504889
21
1857.44390275883
31
1.41055097948595e-005
  0
LINE
 8
GROUP0
10
342.719924504889
20
1857.44390275883
30
1.41055097948595e-005
11
340.121848293537
21
1858.94390275882
31
1.18007120249786e-005
  0
LINE
 8
GROUP0
10
340.121848293537
20
1858.94390275882
30
1.18007120249786e-005
11
340.121848293539
21
1861.94390275882
31
9.8072071516242e-006
  0
LINE
 8
GROUP0
10
340.121848293539
20
1861.94390275882
30
9.8072071516242e-006
11
342.719924504893
21
1863.44390275882
31
1.01185011310179e-005
  0
LINE
 8
GROUP0
10
342.719924504893
20
1863.44390275882
30
1.01185011310179e-005
11
345.318000716245
21
1861.94390275882
31
1.2423299803288e-005
  0
LINE
 8
GROUP0
10
345.318000716245
20
1861.94390275882
30
1.2423299803288e-005
11
345.318000716243
21
1858.94390275882
31
1.44168044961646e-005
  0
LINE
 8
GROUP0
10
334.523772082199
20
1863.44390275883
30
1.99257087338367e-005
11
337.121848293552
21
1861.94390275883
31
2.2230507225629e-005
  0
LINE
 8
GROUP0
10
337.121848293552
20
1861.94390275883
30
2.2230507225629e-005
11
337.121848293551
21
1858.94390275883
31
2.4224011377072e-005
  0
LINE
 8
GROUP0
10
337.121848293551
20
1858.94390275883
30
2.4224011377072e-005
11
334.523772082196
21
1857.44390275883
31
2.39127173074394e-005
  0
LINE
 8
GROUP0
10
334.523772082196
20
1857.44390275883
30
2.39127173074394e-005
11
331.925695870844
21
1858.94390275883
31
2.16079189961249e-005
  0
LINE
 8
GROUP0
10
331.925695870844
20
1858.94390275883
30
2.16079189961249e-005
11
331.925695870846
21
1861.94390275883
31
1.9614414754443e-005
  0
LINE
 8
GROUP0
10
331.925695870846
20
1861.94390275883
30
1.9614414754443e-005
11
334.523772082199
21
1863.44390275883
31
1.99257087338367e-005
  0
LINE
 8
GROUP0
10
338.621834003091
20
1850.34582714725
30
6.54983316835001e-005
11
336.023757791742
21
1851.84582714725
31
6.04528630837819e-005
  0
LINE
 8
GROUP0
10
336.023757791742
20
1851.84582714725
30
6.04528630837819e-005
11
336.023757791744
21
1854.84582714725
31
5.91955385701226e-005
  0
LINE
 8
GROUP0
10
336.023757791744
20
1854.84582714725
30
5.91955385701226e-005
11
338.621834003094
21
1856.34582714725
31
6.29836832878539e-005
  0
LINE
 8
GROUP0
10
338.621834003094
20
1856.34582714725
30
6.29836832878539e-005
11
341.219910214443
21
1854.84582714725
31
6.80291516168552e-005
  0
LINE
 8
GROUP0
10
341.219910214443
20
1854.84582714725
30
6.80291516168552e-005
11
341.21991021444
21
1851.84582714725
31
6.92864763109924e-005
  0
LINE
 8
GROUP0
10
341.21991021444
20
1851.84582714725
30
6.92864763109924e-005
11
338.621834003091
21
1850.34582714725
31
6.54983316835001e-005
  0
LINE
 8
GROUP0
10
319.631466198001
20
1869.04197956995
30
4.05873878413843e-005
11
322.229542409351
21
1870.54197956995
31
4.43755315213679e-005
  0
LINE
 8
GROUP0
10
322.229542409351
20
1870.54197956995
30
4.43755315213679e-005
11
324.827618620698
21
1869.04197956995
31
4.94209999857276e-005
  0
LINE
 8
GROUP0
10
324.827618620698
20
1869.04197956995
30
4.94209999857276e-005
11
324.827618620696
21
1866.04197956995
31
5.06783248603426e-005
  0
LINE
 8
GROUP0
10
324.827618620696
20
1866.04197956995
30
5.06783248603426e-005
11
322.229542409347
21
1864.54197956995
31
4.68901805035671e-005
  0
LINE
 8
GROUP0
10
322.229542409347
20
1864.54197956995
30
4.68901805035671e-005
11
319.631466197998
21
1866.04197956995
31
4.18447126257604e-005
  0
LINE
 8
GROUP0
10
319.631466197998
20
1866.04197956995
30
4.18447126257604e-005
11
319.631466198001
21
1869.04197956995
31
4.05873878413843e-005
  0
LINE
 8
GROUP0
10
476.45638102626
20
1858.94392924165
30
0.000125035156855091
11
473.858304814907
21
1857.44392924165
31
0.000124723863146414
  0
LINE
 8
GROUP0
10
473.858304814907
20
1857.44392924165
30
0.000124723863146414
11
471.260228603555
21
1858.94392924165
31
0.000122419065105817
  0
LINE
 8
GROUP0
10
471.260228603555
20
1858.94392924165
30
0.000122419065105817
11
471.260228603557
21
1861.94392924165
31
0.000120425560322701
  0
LINE
 8
GROUP0
10
471.260228603557
20
1861.94392924165
30
0.000120425560322701
11
473.85830481491
21
1863.44392924165
31
0.000120736854211856
  0
LINE
 8
GROUP0
10
473.85830481491
20
1863.44392924165
30
0.000120736854211856
11
476.456381026262
21
1861.94392924165
31
0.000123041652974365
  0
LINE
 8
GROUP0
10
476.456381026262
20
1861.94392924165
30
0.000123041652974365
11
476.45638102626
21
1858.94392924165
31
0.000125035156855091
  0
LINE
 8
GROUP0
10
457.465999969524
20
1863.44392924166
30
0.000140351269056538
11
460.064076180877
21
1861.94392924166
31
0.00014265606754833
  0
LINE
 8
GROUP0
10
460.064076180877
20
1861.94392924166
30
0.00014265606754833
11
460.064076180876
21
1858.94392924167
31
0.000144649571699773
  0
LINE
 8
GROUP0
10
460.064076180876
20
1858.94392924167
30
0.000144649571699773
11
457.465999969521
21
1857.44392924167
31
0.000144338277630141
  0
LINE
 8
GROUP0
10
457.465999969521
20
1857.44392924167
30
0.000144338277630141
11
454.867923758169
21
1858.94392924167
31
0.000142033479318826
  0
LINE
 8
GROUP0
10
454.867923758169
20
1858.94392924167
30
0.000142033479318826
11
454.867923758171
21
1861.94392924167
31
0.000140039975077144
  0
LINE
 8
GROUP0
10
454.867923758171
20
1861.94392924167
30
0.000140039975077144
11
457.465999969524
21
1863.44392924166
31
0.000140351269056538
  0
LINE
 8
GROUP0
10
450.769835333944
20
1851.84585363009
30
0.000180878423902797
11
450.769835333947
21
1854.84585363009
31
0.000179621098983063
  0
LINE
 8
GROUP0
10
450.769835333947
20
1854.84585363009
30
0.000179621098983063
11
453.367911545297
21
1856.34585363009
31
0.000183409243700794
  0
LINE
 8
GROUP0
10
453.367911545297
20
1856.34585363009
30
0.000183409243700794
11
455.965987756645
21
1854.84585363009
31
0.000188454712120034
  0
LINE
 8
GROUP0
10
455.965987756645
20
1854.84585363009
30
0.000188454712120034
11
455.965987756643
21
1851.84585363009
31
0.000189712036678813
  0
LINE
 8
GROUP0
10
455.965987756643
20
1851.84585363009
30
0.000189712036678813
11
453.367911545293
21
1850.34585363009
31
0.000185923892051321
  0
LINE
 8
GROUP0
10
453.367911545293
20
1850.34585363009
30
0.000185923892051321
11
450.769835333944
21
1851.84585363009
31
0.000180878423902797
  0
LINE
 8
GROUP0
10
363.210285038447
20
1850.34583597489
30
8.38702522408141e-005
11
360.612208827099
21
1851.84583597489
31
7.88247839118128e-005
  0
LINE
 8
GROUP0
10
360.612208827099
20
1851.84583597489
30
7.88247839118128e-005
11
360.612208827101
21
1854.84583597489
31
7.75674593981535e-005
  0
LINE
 8
GROUP0
10
360.612208827101
20
1854.84583597489
30
7.75674593981535e-005
11
363.210285038451
21
1856.34583597489
31
8.13556036646901e-005
  0
LINE
 8
GROUP0
10
363.210285038451
20
1856.34583597489
30
8.13556036646901e-005
11
365.808361249799
21
1854.84583597489
31
8.64010722644082e-005
  0
LINE
 8
GROUP0
10
365.808361249799
20
1854.84583597489
30
8.64010722644082e-005
11
365.808361249797
21
1851.84583597489
31
8.76583971390232e-005
  0
LINE
 8
GROUP0
10
365.808361249797
20
1851.84583597489
30
8.76583971390232e-005
11
363.210285038447
21
1850.34583597489
31
8.38702522408141e-005
  0
LINE
 8
GROUP0
10
361.710286077275
20
1861.94391158645
30
8.19867753307335e-005
11
361.710286077273
21
1858.94391158645
31
8.39802799333711e-005
  0
LINE
 8
GROUP0
10
361.710286077273
20
1858.94391158645
30
8.39802799333711e-005
11
359.112209865919
21
1857.44391158645
31
8.36689858637385e-005
  0
LINE
 8
GROUP0
10
359.112209865919
20
1857.44391158645
30
8.36689858637385e-005
11
356.514133654567
21
1858.94391158645
31
8.13641880036187e-005
  0
LINE
 8
GROUP0
10
356.514133654567
20
1858.94391158645
30
8.13641880036187e-005
11
356.514133654569
21
1861.94391158645
31
7.93706832205032e-005
  0
LINE
 8
GROUP0
10
356.514133654569
20
1861.94391158645
30
7.93706832205032e-005
11
359.112209865923
21
1863.44391158645
31
7.96819766584633e-005
  0
LINE
 8
GROUP0
10
359.112209865923
20
1863.44391158645
30
7.96819766584633e-005
11
361.710286077275
21
1861.94391158645
31
8.19867753307335e-005
  0
LINE
 8
GROUP0
10
449.269847546829
20
1857.44392924167
30
0.000154145485503676
11
446.671771335477
21
1858.94392924167
31
0.000151840687102123
  0
LINE
 8
GROUP0
10
446.671771335477
20
1858.94392924167
30
0.000151840687102123
11
446.671771335479
21
1861.94392924167
31
0.000149847182228768
  0
LINE
 8
GROUP0
10
446.671771335479
20
1861.94392924167
30
0.000149847182228768
11
449.269847546833
21
1863.44392924167
31
0.00015015847638864
  0
LINE
 8
GROUP0
10
449.269847546833
20
1863.44392924167
30
0.00015015847638864
11
451.867923758184
21
1861.94392924167
31
0.000152463274970671
  0
LINE
 8
GROUP0
10
451.867923758184
20
1861.94392924167
30
0.000152463274970671
11
451.867923758182
21
1858.94392924167
31
0.00015445677948307
  0
LINE
 8
GROUP0
10
451.867923758182
20
1858.94392924167
30
0.00015445677948307
11
449.269847546829
21
1857.44392924167
31
0.000154145485503676
  0
LINE
 8
GROUP0
10
464.162138101765
20
1851.84585363009
30
0.000189712036678813
11
461.564061890415
21
1850.34585363009
31
0.000185923892051321
  0
LINE
 8
GROUP0
10
461.564061890415
20
1850.34585363009
30
0.000185923892051321
11
458.965985679067
21
1851.84585363009
31
0.000180878423451603
  0
LINE
 8
GROUP0
10
458.965985679067
20
1851.84585363009
30
0.000180878423451603
11
458.965985679069
21
1854.84585363009
31
0.000179621098892824
  0
LINE
 8
GROUP0
10
458.965985679069
20
1854.84585363009
30
0.000179621098892824
11
461.564061890419
21
1856.34585363009
31
0.000183409243610555
  0
LINE
 8
GROUP0
10
461.564061890419
20
1856.34585363009
30
0.000183409243610555
11
464.162138101768
21
1854.84585363009
31
0.000188454711939556
  0
LINE
 8
GROUP0
10
464.162138101768
20
1854.84585363009
30
0.000188454711939556
11
464.162138101765
21
1851.84585363009
31
0.000189712036678813
  0
LINE
 8
GROUP0
10
468.260228603568
20
1858.94392924166
30
0.000134842364818866
11
465.662152392214
21
1857.44392924166
31
0.000134531070117561
  0
LINE
 8
GROUP0
10
465.662152392214
20
1857.44392924166
30
0.000134531070117561
11
463.064076180862
21
1858.94392924166
31
0.00013222627234768
  0
LINE
 8
GROUP0
10
463.064076180862
20
1858.94392924166
30
0.00013222627234768
11
463.064076180864
21
1861.94392924166
31
0.000130232767474325
  0
LINE
 8
GROUP0
10
463.064076180864
20
1861.94392924166
30
0.000130232767474325
11
465.662152392218
21
1863.44392924166
31
0.000130544061453719
  0
LINE
 8
GROUP0
10
465.662152392218
20
1863.44392924166
30
0.000130544061453719
11
468.26022860357
21
1861.94392924166
31
0.000132848860125989
  0
LINE
 8
GROUP0
10
468.26022860357
20
1861.94392924166
30
0.000132848860125989
11
468.260228603568
21
1858.94392924166
31
0.000134842364818866
  0
LINE
 8
GROUP0
10
469.760212235532
20
1850.34585804391
30
0.000195109852645814
11
467.162136024185
21
1851.84585804391
31
0.000190064383324184
  0
LINE
 8
GROUP0
10
467.162136024185
20
1851.84585804391
30
0.000190064383324184
11
467.162136024187
21
1854.84585804391
31
0.000188807059803153
  0
LINE
 8
GROUP0
10
467.162136024187
20
1854.84585804391
30
0.000188807059803153
11
469.760212235537
21
1856.34585804391
31
0.000192595203483137
  0
LINE
 8
GROUP0
10
469.760212235537
20
1856.34585804391
30
0.000192595203483137
11
472.358288446885
21
1854.84585804391
31
0.000197640672218213
  0
LINE
 8
GROUP0
10
472.358288446885
20
1854.84585804391
30
0.000197640672218213
11
472.358288446883
21
1851.84585804391
31
0.000198897996280678
  0
LINE
 8
GROUP0
10
472.358288446883
20
1851.84585804391
30
0.000198897996280678
11
469.760212235532
21
1850.34585804391
31
0.000195109852645814
  0
LINE
 8
GROUP0
10
464.162138101776
20
1883.23815847544
30
0.000191616493552971
11
464.162138101773
21
1880.23815847544
31
0.000192873817525197
  0
LINE
 8
GROUP0
10
464.162138101773
20
1880.23815847544
30
0.000192873817525197
11
461.564061890423
21
1878.73815847544
31
0.000189085674431766
  0
LINE
 8
GROUP0
10
461.564061890423
20
1878.73815847544
30
0.000189085674431766
11
458.965985679075
21
1880.23815847544
31
0.000184040205110136
  0
LINE
 8
GROUP0
10
458.965985679075
20
1880.23815847544
30
0.000184040205110136
11
458.965985679077
21
1883.23815847544
31
0.000182782880596477
  0
LINE
 8
GROUP0
10
458.965985679077
20
1883.23815847544
30
0.000182782880596477
11
461.564061890427
21
1884.73815847544
31
0.000186571025494686
  0
LINE
 8
GROUP0
10
461.564061890427
20
1884.73815847544
30
0.000186571025494686
11
464.162138101776
21
1883.23815847544
31
0.000191616493552971
  0
LINE
 8
GROUP0
10
467.162136024192
20
1866.04201046658
30
0.000193226165072957
11
467.162136024195
21
1869.04201046658
31
0.000191968841100731
  0
LINE
 8
GROUP0
10
467.162136024195
20
1869.04201046658
30
0.000191968841100731
11
469.760212235544
21
1870.54201046658
31
0.000195756985277029
  0
LINE
 8
GROUP0
10
469.760212235544
20
1870.54201046658
30
0.000195756985277029
11
472.358288446893
21
1869.04201046658
31
0.000200802453696269
  0
LINE
 8
GROUP0
10
472.358288446893
20
1869.04201046658
30
0.000200802453696269
11
472.358288446891
21
1866.04201046658
31
0.000202059778480645
  0
LINE
 8
GROUP0
10
472.358288446891
20
1866.04201046658
30
0.000202059778480645
11
469.760212235541
21
1864.54201046658
31
0.000198271634304348
  0
LINE
 8
GROUP0
10
469.760212235541
20
1864.54201046658
30
0.000198271634304348
11
467.162136024192
21
1866.04201046658
31
0.000193226165072957
  0
LINE
 8
GROUP0
10
439.573696162894
20
1854.84585363011
30
0.000166684779236448
11
439.573696162892
21
1851.84585363011
31
0.000167942103930585
  0
LINE
 8
GROUP0
10
439.573696162892
20
1851.84585363011
30
0.000167942103930585
11
436.975619951541
21
1850.34585363011
31
0.000164153959167734
  0
LINE
 8
GROUP0
10
436.975619951541
20
1850.34585363011
30
0.000164153959167734
11
434.377543740193
21
1851.84585363011
31
0.000159108490793614
  0
LINE
 8
GROUP0
10
434.377543740193
20
1851.84585363011
30
0.000159108490793614
11
434.377543740196
21
1854.84585363011
31
0.000157851166370193
  0
LINE
 8
GROUP0
10
434.377543740196
20
1854.84585363011
30
0.000157851166370193
11
436.975619951546
21
1856.34585363011
31
0.000161639311268402
  0
LINE
 8
GROUP0
10
436.975619951546
20
1856.34585363011
30
0.000161639311268402
11
439.573696162894
21
1854.84585363011
31
0.000166684779236448
  0
LINE
 8
GROUP0
10
445.171770296664
20
1850.34585363011
30
0.000164153959167734
11
442.573694085315
21
1851.84585363011
31
0.000159108490793614
  0
LINE
 8
GROUP0
10
442.573694085315
20
1851.84585363011
30
0.000159108490793614
11
442.573694085318
21
1854.84585363011
31
0.000157851166279954
  0
LINE
 8
GROUP0
10
442.573694085318
20
1854.84585363011
30
0.000157851166279954
11
445.171770296668
21
1856.34585363011
31
0.000161639310546491
  0
LINE
 8
GROUP0
10
445.171770296668
20
1856.34585363011
30
0.000161639310546491
11
447.769846508016
21
1854.84585363011
31
0.000166684779146209
  0
LINE
 8
GROUP0
10
447.769846508016
20
1854.84585363011
30
0.000166684779146209
11
447.769846508013
21
1851.84585363011
31
0.000167942104065943
  0
LINE
 8
GROUP0
10
447.769846508013
20
1851.84585363011
30
0.000167942104065943
11
445.171770296664
21
1850.34585363011
31
0.000164153959167734
  0
LINE
 8
GROUP0
10
387.798726977316
20
1850.34584038868
30
0.000114826145718894
11
385.200650765968
21
1851.84584038868
31
0.000109780676397264
  0
LINE
 8
GROUP0
10
385.200650765968
20
1851.84584038868
30
0.000109780676397264
11
385.20065076597
21
1854.84584038868
31
0.000108523352876233
  0
LINE
 8
GROUP0
10
385.20065076597
20
1854.84584038868
30
0.000108523352876233
11
387.79872697732
21
1856.34584038868
31
0.000112311496601336
  0
LINE
 8
GROUP0
10
387.79872697732
20
1856.34584038868
30
0.000112311496601336
11
390.396803188668
21
1854.84584038868
31
0.000117356965291293
  0
LINE
 8
GROUP0
10
390.396803188668
20
1854.84584038868
30
0.000117356965291293
11
390.396803188667
21
1851.84584038868
31
0.000118614289353758
  0
LINE
 8
GROUP0
10
390.396803188667
20
1851.84584038868
30
0.000118614289353758
11
387.798726977316
21
1850.34584038868
31
0.000114826145718894
  0
LINE
 8
GROUP0
10
438.475618912786
20
1861.94392924168
30
0.000159654390102304
11
441.07369512414
21
1863.44392924168
31
0.000159965683540264
  0
LINE
 8
GROUP0
10
441.07369512414
20
1863.44392924168
30
0.000159965683540264
11
443.671771335491
21
1861.94392924168
31
0.000162270482212534
  0
LINE
 8
GROUP0
10
443.671771335491
20
1861.94392924168
30
0.000162270482212534
11
443.671771335489
21
1858.94392924168
31
0.000164263986815172
  0
LINE
 8
GROUP0
10
443.671771335489
20
1858.94392924168
30
0.000164263986815172
11
441.073695124135
21
1857.44392924168
31
0.000163952692745539
  0
LINE
 8
GROUP0
10
441.073695124135
20
1857.44392924168
30
0.000163952692745539
11
438.475618912784
21
1858.94392924168
31
0.000161647894885419
  0
LINE
 8
GROUP0
10
438.475618912784
20
1858.94392924168
30
0.000161647894885419
11
438.475618912786
21
1861.94392924168
31
0.000159654390102304
  0
LINE
 8
GROUP0
10
455.96598775665
20
1866.04200605277
30
0.000192873817795913
11
453.367911545302
21
1864.54200605277
31
0.000189085674522005
  0
LINE
 8
GROUP0
10
453.367911545302
20
1864.54200605277
30
0.000189085674522005
11
450.769835333952
21
1866.04200605276
31
0.000184040205290614
  0
LINE
 8
GROUP0
10
450.769835333952
20
1866.04200605276
30
0.000184040205290614
11
450.769835333955
21
1869.04200605277
31
0.000182782880867194
  0
LINE
 8
GROUP0
10
450.769835333955
20
1869.04200605277
30
0.000182782880867194
11
453.367911545305
21
1870.54200605276
31
0.000186571025223969
  0
LINE
 8
GROUP0
10
453.367911545305
20
1870.54200605276
30
0.000186571025223969
11
455.965987756654
21
1869.04200605277
31
0.000191616493282254
  0
LINE
 8
GROUP0
10
455.965987756654
20
1869.04200605277
30
0.000191616493282254
11
455.96598775665
21
1866.04200605277
31
0.000192873817795913
  0
LINE
 8
GROUP0
10
369.906438499967
20
1861.94391158645
30
7.21795680888704e-005
11
369.906438499966
21
1858.94391158645
31
7.4173072601269e-005
  0
LINE
 8
GROUP0
10
369.906438499966
20
1858.94391158645
30
7.4173072601269e-005
11
367.308362288612
21
1857.44391158645
31
7.38617786218754e-005
  0
LINE
 8
GROUP0
10
367.308362288612
20
1857.44391158645
30
7.38617786218754e-005
11
364.71028607726
21
1858.94391158645
31
7.1556980220322e-005
  0
LINE
 8
GROUP0
10
364.71028607726
20
1858.94391158645
30
7.1556980220322e-005
11
364.710286077262
21
1861.94391158645
31
6.95634753469676e-005
  0
LINE
 8
GROUP0
10
364.710286077262
20
1861.94391158645
30
6.95634753469676e-005
11
367.308362288616
21
1863.44391158645
31
6.98747695068391e-005
  0
LINE
 8
GROUP0
10
367.308362288616
20
1863.44391158645
30
6.98747695068391e-005
11
369.906438499967
21
1861.94391158645
31
7.21795680888704e-005
  0
LINE
 8
GROUP0
10
439.573696162902
20
1883.23815847546
30
0.000169846560579145
11
439.5736961629
21
1880.23815847546
31
0.000171103885183044
  0
LINE
 8
GROUP0
10
439.5736961629
20
1880.23815847546
30
0.000171103885183044
11
436.975619951549
21
1878.73815847546
31
0.000167315740284835
  0
LINE
 8
GROUP0
10
436.975619951549
20
1878.73815847546
30
0.000167315740284835
11
434.377543740201
21
1880.23815847546
31
0.000162270272587506
  0
LINE
 8
GROUP0
10
434.377543740201
20
1880.23815847546
30
0.000162270272587506
11
434.377543740203
21
1883.23815847546
31
0.00016101294780313
  0
LINE
 8
GROUP0
10
434.377543740203
20
1883.23815847546
30
0.00016101294780313
11
436.975619951553
21
1884.73815847546
31
0.000164801092069666
  0
LINE
 8
GROUP0
10
436.975619951553
20
1884.73815847546
30
0.000164801092069666
11
439.573696162902
21
1883.23815847546
31
0.000169846560579145
  0
LINE
 8
GROUP0
10
453.367911545302
20
1878.73815847544
30
0.000189085674431766
11
450.769835333952
21
1880.23815847544
31
0.000184040205110136
  0
LINE
 8
GROUP0
10
450.769835333952
20
1880.23815847544
30
0.000184040205110136
11
450.769835333954
21
1883.23815847544
31
0.000182782880686716
  0
LINE
 8
GROUP0
10
450.769835333954
20
1883.23815847544
30
0.000182782880686716
11
453.367911545305
21
1884.73815847544
31
0.000186571025494686
  0
LINE
 8
GROUP0
10
453.367911545305
20
1884.73815847544
30
0.000186571025494686
11
455.965987756654
21
1883.23815847544
31
0.00019161649364321
  0
LINE
 8
GROUP0
10
455.965987756654
20
1883.23815847544
30
0.00019161649364321
11
455.965987756651
21
1880.23815847544
31
0.000192873817525197
  0
LINE
 8
GROUP0
10
455.965987756651
20
1880.23815847544
30
0.000192873817525197
11
453.367911545302
21
1878.73815847544
31
0.000189085674431766
  0
LINE
 8
GROUP0
10
374.004502498426
20
1851.84583597486
30
0.000109428329751893
11
371.406426287076
21
1850.34583597487
31
0.0001056401851244
  0
LINE
 8
GROUP0
10
371.406426287076
20
1850.34583597487
30
0.0001056401851244
11
368.808350075728
21
1851.84583597487
31
0.000100594716975877
  0
LINE
 8
GROUP0
10
368.808350075728
20
1851.84583597487
30
0.000100594716975877
11
368.80835007573
21
1854.84583597487
31
9.93373921012619e-005
  0
LINE
 8
GROUP0
10
368.80835007573
20
1854.84583597487
30
9.93373921012619e-005
11
371.40642628708
21
1856.34583597486
31
0.000103125536818993
  0
LINE
 8
GROUP0
10
371.40642628708
20
1856.34583597486
30
0.000103125536818993
11
374.004502498428
21
1854.84583597487
31
0.000108171005238233
  0
LINE
 8
GROUP0
10
374.004502498428
20
1854.84583597487
30
0.000108171005238233
11
374.004502498426
21
1851.84583597486
31
0.000109428329751893
  0
LINE
 8
GROUP0
10
451.867923758192
20
1873.14008166435
30
0.000169430258267056
11
449.269847546842
21
1871.64008166435
31
0.000165642114541953
  0
LINE
 8
GROUP0
10
449.269847546842
20
1871.64008166435
30
0.000165642114541953
11
446.671771335494
21
1873.14008166435
31
0.000160596645942235
  0
LINE
 8
GROUP0
10
446.671771335494
20
1873.14008166435
30
0.000160596645942235
11
446.671771335496
21
1876.14008166435
31
0.000159339320977381
  0
LINE
 8
GROUP0
10
446.671771335496
20
1876.14008166435
30
0.000159339320977381
11
449.269847546846
21
1877.64008166435
31
0.000163127464973201
  0
LINE
 8
GROUP0
10
449.269847546846
20
1877.64008166435
30
0.000163127464973201
11
451.867923758194
21
1876.14008166435
31
0.000168172934114352
  0
LINE
 8
GROUP0
10
451.867923758194
20
1876.14008166435
30
0.000168172934114352
11
451.867923758192
21
1873.14008166435
31
0.000169430258267056
  0
LINE
 8
GROUP0
10
472.358288446893
20
1883.23816288926
30
0.00020080245360603
11
472.358288446891
21
1880.23816288926
31
0.000202059778390407
  0
LINE
 8
GROUP0
10
472.358288446891
20
1880.23816288926
30
0.000202059778390407
11
469.760212235541
21
1878.73816288926
31
0.000198271633492197
  0
LINE
 8
GROUP0
10
469.760212235541
20
1878.73816288926
30
0.000198271633492197
11
467.162136024192
21
1880.23816288926
31
0.00019322616480224
  0
LINE
 8
GROUP0
10
467.162136024192
20
1880.23816288926
30
0.00019322616480224
11
467.162136024195
21
1883.23816288926
31
0.000191968840649537
  0
LINE
 8
GROUP0
10
467.162136024195
20
1883.23816288926
30
0.000191968840649537
11
469.760212235545
21
1884.73816288926
31
0.000195756985367268
  0
LINE
 8
GROUP0
10
469.760212235545
20
1884.73816288926
30
0.000195756985367268
11
472.358288446893
21
1883.23816288926
31
0.00020080245360603
  0
LINE
 8
GROUP0
10
463.064076180893
20
1876.14008166435
30
0.000159339320977381
11
465.662152392243
21
1877.64008166435
31
0.000163127465243917
  0
LINE
 8
GROUP0
10
465.662152392243
20
1877.64008166435
30
0.000163127465243917
11
468.260228603592
21
1876.14008166435
31
0.000168172934114352
  0
LINE
 8
GROUP0
10
468.260228603592
20
1876.14008166435
30
0.000168172934114352
11
468.260228603589
21
1873.14008166435
31
0.000169430258267056
  0
LINE
 8
GROUP0
10
468.260228603589
20
1873.14008166435
30
0.000169430258267056
11
465.662152392239
21
1871.64008166435
31
0.000165642114541953
  0
LINE
 8
GROUP0
10
465.662152392239
20
1871.64008166435
30
0.000165642114541953
11
463.064076180891
21
1873.14008166435
31
0.000160596645942235
  0
LINE
 8
GROUP0
10
463.064076180891
20
1873.14008166435
30
0.000160596645942235
11
463.064076180893
21
1876.14008166435
31
0.000159339320977381
  0
LINE
 8
GROUP0
10
457.465999969541
20
1871.64008166435
30
0.000165642114541953
11
454.867923758192
21
1873.14008166435
31
0.000160596645942235
  0
LINE
 8
GROUP0
10
454.867923758192
20
1873.14008166435
30
0.000160596645942235
11
454.867923758195
21
1876.14008166435
31
0.000159339320977381
  0
LINE
 8
GROUP0
10
454.867923758195
20
1876.14008166435
30
0.000159339320977381
11
457.465999969544
21
1877.64008166435
31
0.000163127465243917
  0
LINE
 8
GROUP0
10
457.465999969544
20
1877.64008166435
30
0.000163127465243917
11
460.064076180893
21
1876.14008166435
31
0.000168172934114352
  0
LINE
 8
GROUP0
10
460.064076180893
20
1876.14008166435
30
0.000168172934114352
11
460.064076180891
21
1873.14008166435
31
0.000169430258267056
  0
LINE
 8
GROUP0
10
460.064076180891
20
1873.14008166435
30
0.000169430258267056
11
457.465999969541
21
1871.64008166435
31
0.000165642114541953
  0
LINE
 8
GROUP0
10
441.073695124147
20
1877.64008166435
30
0.000163127465243917
11
443.671771335496
21
1876.14008166435
31
0.000168172934114352
  0
LINE
 8
GROUP0
10
443.671771335496
20
1876.14008166435
30
0.000168172934114352
11
443.671771335493
21
1873.14008166435
31
0.000169430258267056
  0
LINE
 8
GROUP0
10
443.671771335493
20
1873.14008166435
30
0.000169430258267056
11
441.073695124143
21
1871.64008166435
31
0.000165642114541953
  0
LINE
 8
GROUP0
10
441.073695124143
20
1871.64008166435
30
0.000165642114541953
11
438.475618912795
21
1873.14008166435
31
0.000160596645942235
  0
LINE
 8
GROUP0
10
438.475618912795
20
1873.14008166435
30
0.000160596645942235
11
438.475618912797
21
1876.14008166435
31
0.000159339320977381
  0
LINE
 8
GROUP0
10
438.475618912797
20
1876.14008166435
30
0.000159339320977381
11
441.073695124147
21
1877.64008166435
31
0.000163127465243917
  0
LINE
 8
GROUP0
10
352.416058481979
20
1854.84583597489
30
7.75674594883924e-005
11
355.014134693329
21
1856.34583597489
31
8.13556043866015e-005
  0
LINE
 8
GROUP0
10
355.014134693329
20
1856.34583597489
30
8.13556043866015e-005
11
357.612210904678
21
1854.84583597489
31
8.64010723546471e-005
  0
LINE
 8
GROUP0
10
357.612210904678
20
1854.84583597489
30
8.64010723546471e-005
11
357.612210904676
21
1851.84583597489
31
8.76583970487843e-005
  0
LINE
 8
GROUP0
10
357.612210904676
20
1851.84583597489
30
8.76583970487843e-005
11
355.014134693325
21
1850.34583597489
31
8.38702522408141e-005
  0
LINE
 8
GROUP0
10
355.014134693325
20
1850.34583597489
30
8.38702522408141e-005
11
352.416058481976
21
1851.84583597489
31
7.88247839118128e-005
  0
LINE
 8
GROUP0
10
352.416058481976
20
1851.84583597489
30
7.88247839118128e-005
11
352.416058481979
21
1854.84583597489
31
7.75674594883924e-005
  0
LINE
 8
GROUP0
10
458.965985679077
20
1869.04200605276
30
0.000182782881137911
11
461.564061890427
21
1870.54200605276
31
0.000186571025223969
  0
LINE
 8
GROUP0
10
461.564061890427
20
1870.54200605276
30
0.000186571025223969
11
464.162138101776
21
1869.04200605277
31
0.000191616493192015
 0
ENDSEC
 0
EOF
